<?xml version="1.0" encoding="iso-8859-1"?>
<!-- Generator: Adobe Illustrator 19.0.0, SVG Export Plug-In . SVG Version: 6.00 Build 0)  -->
<svg version="1.1" id="Layer_1" xmlns="http://www.w3.org/2000/svg" xmlns:xlink="http://www.w3.org/1999/xlink" x="0px" y="0px"
	 viewBox="0 0 512 512" style="enable-background:new 0 0 512 512;" xml:space="preserve">
<circle style="fill:#FFC91B;" cx="256" cy="256" r="256"/>
<path style="fill:#EAA22F;" d="M510.136,286.917L372.674,149.454l-7.914,8.437l-10.281-10.281l-155.367,18.579l81.455,81.455
	l-2.586,2.755l25.221,25.221L103.724,365.23l146.699,146.699c1.855,0.04,3.712,0.071,5.577,0.071
	C386.919,512,494.87,413.72,510.136,286.917z"/>
<path style="fill:#273B7A;" d="M360.296,142.222H209.455c-7.854,0-14.222,6.368-14.222,14.222s6.368,14.222,14.222,14.222h124.552
	v72.835h15.515v-72.835h10.774c7.854,0,14.222-6.368,14.222-14.222S368.15,142.222,360.296,142.222z"/>
<path style="fill:#121149;" d="M360.296,142.222H258.3v28.444h75.707v72.835h15.515v-72.835h10.774
	c7.854,0,14.222-6.368,14.222-14.222S368.15,142.222,360.296,142.222z"/>
<path style="fill:#386895;" d="M370.352,369.778H114.064c-7.775,0-14.079-6.303-14.079-14.079v-12.641
	c0-63.79,51.712-115.502,115.502-115.502H370.35c7.775,0,14.079,6.303,14.079,14.079V355.7
	C384.431,363.475,378.128,369.778,370.352,369.778z"/>
<path style="fill:#273B7A;" d="M370.352,227.556H258.298v142.222h112.054c7.775,0,14.079-6.303,14.079-14.079V241.633
	C384.431,233.858,378.128,227.556,370.352,227.556z"/>
<path style="fill:#FFEDB5;" d="M100.724,330.128c-0.472,4.246-0.738,8.556-0.738,12.929v12.641c0,7.775,6.303,14.079,14.079,14.079
	h256.288c7.775,0,14.079-6.303,14.079-14.079v-25.571H100.724z"/>
<path style="fill:#FEE187;" d="M258.3,330.128v39.65h112.054c7.775,0,14.079-6.303,14.079-14.079v-25.571H258.3z"/>
<g>
</g>
<g>
</g>
<g>
</g>
<g>
</g>
<g>
</g>
<g>
</g>
<g>
</g>
<g>
</g>
<g>
</g>
<g>
</g>
<g>
</g>
<g>
</g>
<g>
</g>
<g>
</g>
<g>
</g>
</svg>
