<?xml version="1.0" encoding="iso-8859-1"?>
<!-- Generator: Adobe Illustrator 19.0.0, SVG Export Plug-In . SVG Version: 6.00 Build 0)  -->
<svg version="1.1" id="Capa_1" xmlns="http://www.w3.org/2000/svg" xmlns:xlink="http://www.w3.org/1999/xlink" x="0px" y="0px"
	 viewBox="0 0 496 496" style="enable-background:new 0 0 496 496;" xml:space="preserve">
<g>
	<ellipse style="fill:#FFA64D;" cx="248" cy="376" rx="152" ry="24"/>
	<ellipse style="fill:#FFA64D;" cx="248" cy="424" rx="120" ry="24"/>
</g>
<g>
	<path style="fill:#333333;" d="M496,144c0-27.44-19.856-50.288-45.944-55.048c-6-10.92-15.96-19.08-27.84-22.744
		C415.992,41.8,393.576,24,368,24c-8.672,0-17.176,2.128-24.888,5.96C336.256,26.168,328.376,24,320,24
		c-5.408,0-10.752,0.96-15.936,2.856C290.448,9.928,269.944,0,248,0c-22.6,0-42.776,10.488-55.984,26.824
		c-12.736-4.48-27.168-3.44-39.04,3.104C145.208,26.032,136.672,24,128,24c-25.944,0-48.08,17.52-54.28,42.248
		C62,69.904,51.96,77.912,45.936,88.904C19.448,93.672,0,116.608,0,144c0,19.496,10.256,37.192,26.288,47.288
		C24.84,196.632,24,202.208,24,208c0,35.288,28.712,64,64,64c2.168,0,4.304-0.112,6.416-0.328
		c9.984,17.576,30.08,27.824,50.968,23.304C155.704,310.56,173.024,320,192,320c3.88,0,7.72-0.4,11.472-1.192l-3.04,26.384
		C88.08,350.8,88,369.696,88,376c0,13.904,27.8,21.776,60.544,26.232C129.616,407.592,120,414.856,120,424
		c0,16.984,34.272,24.952,67.512,28.696C183.232,468.568,168.88,480,152,480v16c25.144,0,46.528-17.632,51.696-41.776
		C224.976,455.872,243.232,456,248,456s23.024-0.128,44.304-1.776C297.464,478.368,318.856,496,344,496v-16
		c-16.88,0-31.24-11.44-35.512-27.304C341.728,448.952,376,440.984,376,424c0-9.144-9.616-16.408-28.544-21.768
		C380.2,397.776,408,389.904,408,376c0-6.304-0.08-25.2-112.432-30.808l-3.048-26.384c3.712,0.776,7.544,1.192,11.48,1.192
		c18.976,0,36.296-9.44,46.608-25.024c3.176,0.688,6.28,1.024,9.392,1.024c17.904,0,33.528-9.872,41.776-24.44
		c2.072,0.2,4.144,0.44,6.224,0.44c35.288,0,64-28.712,64-64c0-5.64-0.832-11.208-2.288-16.616C485.472,181.464,496,163.96,496,144z
		 M198.568,361.312l-3.368,29.176c-47.304-2.824-79.128-9.104-89.024-14.432C114.952,371.528,143.144,364.336,198.568,361.312z
		 M192.864,410.72l-3.024,26.248c-29.896-3.408-47.688-8.976-52.856-12.928C141.392,420.832,156.688,414.52,192.864,410.72z
		 M205.768,438.472l3.608-31.288C226.68,407.888,241.008,408,248,408s21.32-0.112,38.624-0.816l3.608,31.288
		C277.768,439.424,263.712,440,248,440S218.232,439.424,205.768,438.472z M306.16,436.968l-3.032-26.248
		c36.184,3.792,51.48,10.112,55.88,13.32C353.848,427.992,336.056,433.56,306.16,436.968z M389.824,376.056
		c-9.896,5.328-41.72,11.608-89.024,14.432l-3.368-29.176C352.856,364.336,381.048,371.528,389.824,376.056z M456,208
		c0,26.472-21.528,48-48,48c-0.24,0-0.472-0.048-0.712-0.048C407.72,253.36,408,250.712,408,248c0-26.472-21.528-48-48-48v16
		c17.648,0,32,14.352,32,32s-14.352,32-32,32c-3.344,0-6.792-0.64-10.528-1.944l-6.624-2.32l-3.168,6.256
		C332.824,295.568,319.152,304,304,304c-22.056,0-40-17.944-40-40s17.944-40,40-40v-16c-30.872,0-56,25.12-56,56
		c0,20.528,11.144,38.464,27.664,48.216l9.12,79.048C273.248,391.728,261,392,248,392s-25.248-0.272-36.784-0.736l11.272-97.616
		l-13.104,6.328C203.856,302.648,198.016,304,192,304c-15.152,0-28.824-8.432-35.68-22.008l-3.168-6.256l-6.624,2.32
		C142.792,279.36,139.344,280,136,280c-9.976,0-19.152-4.672-25.136-12.296C134.88,258.472,152,235.224,152,208h-16
		c0,26.472-21.528,48-48,48s-48-21.528-48-48s21.528-48,48-48v-16c-23.752,0-44.472,13.032-55.52,32.296
		C22.344,168.888,16,156.984,16,144c0-20.664,15.496-37.776,36.032-39.8l4.704-0.464l1.864-4.344C63.656,87.616,75.192,80,88,80
		c17.648,0,32,14.352,32,32h16c0-25.328-19.728-46.08-44.616-47.832C97.56,49.784,111.672,40,128,40c7.376,0,14.632,2.072,20.992,6
		l4.472,2.768l4.312-3.008c7.44-5.184,16.784-6.808,25.392-4.872C178.624,50.32,176,60.848,176,72c0,39.696,32.296,72,72,72v-16
		c-30.872,0-56-25.12-56-56s25.128-56,56-56c18.84,0,36.312,9.416,46.744,25.192l4,6.056l6.416-3.392
		C309.984,41.296,314.976,40,320,40c17.648,0,32,14.352,32,32s-14.352,32-32,32v16c26.472,0,48-21.528,48-48
		c0-11.552-4.104-22.16-10.928-30.448c3.544-1,7.216-1.552,10.928-1.552c19.568,0,36.544,14.592,39.488,33.944l0.848,5.616
		l5.576,1.048c6.184,1.16,11.752,4.112,16.168,8.32C403.928,93.632,384,116.512,384,144h16c0-22.056,17.944-40,40-40
		s40,17.944,40,40s-17.944,40-40,40c-4.584,0-9.08-0.768-13.36-2.28l-5.328,15.088c5.992,2.12,12.28,3.192,18.688,3.192
		c5.136,0,10.088-0.752,14.816-2.056C455.52,201.248,456,204.592,456,208z"/>
	<rect x="104" y="144" style="fill:#333333;" width="16" height="16"/>
	<rect x="200" y="240" style="fill:#333333;" width="16" height="16"/>
	<rect x="352" y="160" style="fill:#333333;" width="16" height="16"/>
</g>
<g>
</g>
<g>
</g>
<g>
</g>
<g>
</g>
<g>
</g>
<g>
</g>
<g>
</g>
<g>
</g>
<g>
</g>
<g>
</g>
<g>
</g>
<g>
</g>
<g>
</g>
<g>
</g>
<g>
</g>
</svg>
