<?xml version="1.0" encoding="iso-8859-1"?>
<!-- Generator: Adobe Illustrator 18.0.0, SVG Export Plug-In . SVG Version: 6.00 Build 0)  -->
<!DOCTYPE svg PUBLIC "-//W3C//DTD SVG 1.1//EN" "http://www.w3.org/Graphics/SVG/1.1/DTD/svg11.dtd">
<svg version="1.1" id="Capa_1" xmlns="http://www.w3.org/2000/svg" xmlns:xlink="http://www.w3.org/1999/xlink" x="0px" y="0px"
	 viewBox="0 0 47.486 47.486" style="enable-background:new 0 0 47.486 47.486;" xml:space="preserve">
<path d="M9.514,20.993c0.273,0,0.543-0.015,0.811-0.04v19.496H7.127c-0.829,0-1.5,0.671-1.5,1.5c0,0.829,0.671,1.5,1.5,1.5H40.36
	c0.829,0,1.5-0.671,1.5-1.5c0-0.829-0.671-1.5-1.5-1.5h-3.198V20.954c0.268,0.025,0.538,0.04,0.811,0.04
	c2.311,0,4.484-0.9,6.118-2.535c1.972-1.972,3.058-4.594,3.058-7.383s-1.086-5.411-3.058-7.382C41.894,1.497,38.978,0.186,35.791,0
	L11.607,0.002C8.508,0.186,5.592,1.497,3.396,3.693c-1.972,1.972-3.058,4.593-3.058,7.382s1.086,5.411,3.058,7.383
	C5.03,20.093,7.203,20.993,9.514,20.993z M5.518,5.814C7.194,4.138,9.419,3.137,11.695,3l24.007-0.002
	c2.364,0.14,4.59,1.14,6.267,2.817c1.405,1.405,2.179,3.274,2.179,5.261c0,1.988-0.774,3.856-2.179,5.262
	c-1.068,1.067-2.487,1.656-3.997,1.656c-1.51,0-2.929-0.588-3.997-1.656c-0.797-0.797-1.237-1.858-1.237-2.985
	c0-1.128,0.439-2.188,1.237-2.986c0.586-0.585,0.586-1.536,0-2.121c-0.586-0.586-1.535-0.586-2.121,0
	c-1.364,1.364-2.116,3.178-2.116,5.107s0.751,3.743,2.116,5.106c0.683,0.684,1.465,1.23,2.308,1.645v20.346h-5.279V11.773
	c0-0.829-0.671-1.5-1.5-1.5s-1.5,0.671-1.5,1.5v28.677h-4.279V11.773c0-0.829-0.671-1.5-1.5-1.5s-1.5,0.671-1.5,1.5v28.677h-5.279
	V20.103c0.843-0.415,1.624-0.961,2.308-1.645c1.364-1.364,2.116-3.177,2.116-5.106s-0.751-3.743-2.116-5.107
	c-0.586-0.586-1.535-0.586-2.121,0c-0.586,0.585-0.586,1.536,0,2.121c0.797,0.798,1.237,1.858,1.237,2.986
	c0,1.127-0.439,2.188-1.237,2.985c-1.068,1.068-2.487,1.656-3.997,1.656c-1.51,0-2.929-0.588-3.997-1.656
	c-1.405-1.406-2.179-3.274-2.179-5.262C3.338,9.088,4.112,7.22,5.518,5.814z M45.572,45.986c0,0.829-0.671,1.5-1.5,1.5H3.414
	c-0.829,0-1.5-0.671-1.5-1.5c0-0.829,0.671-1.5,1.5-1.5h40.658C44.901,44.486,45.572,45.158,45.572,45.986z"/>
<g>
</g>
<g>
</g>
<g>
</g>
<g>
</g>
<g>
</g>
<g>
</g>
<g>
</g>
<g>
</g>
<g>
</g>
<g>
</g>
<g>
</g>
<g>
</g>
<g>
</g>
<g>
</g>
<g>
</g>
</svg>
