<?xml version="1.0" encoding="iso-8859-1"?>
<!-- Generator: Adobe Illustrator 18.1.1, SVG Export Plug-In . SVG Version: 6.00 Build 0)  -->
<svg xmlns="http://www.w3.org/2000/svg" xmlns:xlink="http://www.w3.org/1999/xlink" version="1.1" id="Capa_1" x="0px" y="0px" viewBox="0 0 611.998 611.998" style="enable-background:new 0 0 611.998 611.998;" xml:space="preserve" width="512px" height="512px">
<g>
	<path d="M470.28,52.526c-3.508-3.043-8.155-4.408-12.758-3.757L270.048,75.542V53.467C270.046,23.938,246.108,0,216.58,0   c-29.53,0-53.467,23.938-53.467,53.467v27.692c-2.233-0.504-4.459-1.045-6.677-1.65c-4.819-1.32-9.977-0.314-13.947,2.714   c-3.97,3.03-6.301,7.739-6.301,12.734v163.547c0,4.995,2.33,9.703,6.301,12.734c3.973,3.03,9.122,4.034,13.945,2.716   c2.216-0.607,4.444-1.141,6.678-1.645v286.224c0,29.528,23.937,53.467,53.467,53.467c29.528,0,53.467-23.938,53.467-53.467V278.253   l187.502,26.445c0.746,0.105,1.494,0.156,2.237,0.156c3.836,0,7.572-1.378,10.504-3.926c3.501-3.041,5.513-7.453,5.513-12.089   c0.012-74.736,0.009-149.472,0-224.214C475.803,59.982,473.788,55.568,470.28,52.526z" fill="#803a1c"/>
</g>
</svg>
