<?xml version="1.0" encoding="UTF-8" standalone="no"?>
<!-- Generator: Adobe Illustrator 18.1.1, SVG Export Plug-In . SVG Version: 6.00 Build 0)  -->

<svg
   xmlns:dc="http://purl.org/dc/elements/1.1/"
   xmlns:cc="http://creativecommons.org/ns#"
   xmlns:rdf="http://www.w3.org/1999/02/22-rdf-syntax-ns#"
   xmlns:svg="http://www.w3.org/2000/svg"
   xmlns="http://www.w3.org/2000/svg"
   xmlns:sodipodi="http://sodipodi.sourceforge.net/DTD/sodipodi-0.dtd"
   xmlns:inkscape="http://www.inkscape.org/namespaces/inkscape"
   version="1.1"
   id="Capa_1"
   x="0px"
   y="0px"
   viewBox="0 0 800.00002 800.00002"
   xml:space="preserve"
   inkscape:version="0.91 r13725"
   sodipodi:docname="battle4.svg"
   width="800"
   height="800"><metadata
     id="metadata11"><rdf:RDF><cc:Work
         rdf:about=""><dc:format>image/svg+xml</dc:format><dc:type
           rdf:resource="http://purl.org/dc/dcmitype/StillImage" /><dc:title /></cc:Work></rdf:RDF></metadata><defs
     id="defs9" /><sodipodi:namedview
     pagecolor="#ffffff"
     bordercolor="#666666"
     borderopacity="1"
     objecttolerance="10"
     gridtolerance="10"
     guidetolerance="10"
     inkscape:pageopacity="0"
     inkscape:pageshadow="2"
     inkscape:window-width="1201"
     inkscape:window-height="732"
     id="namedview7"
     showgrid="true"
     inkscape:zoom="0.44547727"
     inkscape:cx="366.29221"
     inkscape:cy="483.94852"
     inkscape:window-x="2265"
     inkscape:window-y="147"
     inkscape:window-maximized="0"
     inkscape:current-layer="Capa_1"
     inkscape:snap-center="true"
     inkscape:snap-object-midpoints="true"
     fit-margin-top="0"
     fit-margin-left="0"
     fit-margin-right="0"
     fit-margin-bottom="0" /><g
     id="g3"
     transform="matrix(1.1664885,0,0,1.0459414,203.1952,76.82684)"
     style="fill:#c83737"><path
       d="m 498.80533,52.526 c -3.508,-3.043 -8.155,-4.408 -12.758,-3.757 l -187.474,26.773 0,-22.075 C 298.57133,23.938 274.63333,0 245.10533,0 c -29.53,0 -53.467,23.938 -53.467,53.467 l 0,27.692 c -2.233,-0.504 -4.459,-1.045 -6.677,-1.65 -4.819,-1.32 -9.977,-0.314 -13.947,2.714 -3.97,3.03 -6.301,7.739 -6.301,12.734 l 0,163.547 c 0,4.995 2.33,9.703 6.301,12.734 3.973,3.03 9.122,4.034 13.945,2.716 2.216,-0.607 4.444,-1.141 6.678,-1.645 l 0,286.224 c 0,29.528 23.937,53.467 53.467,53.467 29.528,0 53.467,-23.938 53.467,-53.467 l 0,-280.28 187.502,26.445 c 0.746,0.105 1.494,0.156 2.237,0.156 3.836,0 7.572,-1.378 10.504,-3.926 3.501,-3.041 5.513,-7.453 5.513,-12.089 0.012,-74.736 0.009,-149.472 0,-224.214 10e-4,-4.643 -2.014,-9.057 -5.522,-12.099 z"
       id="path5"
       inkscape:connector-curvature="0"
       style="fill:#c83737" /></g><text
     xml:space="preserve"
     style="font-style:normal;font-weight:normal;font-size:741.50256348px;line-height:125%;font-family:sans-serif;letter-spacing:0px;word-spacing:0px;fill:#000000;fill-opacity:1;stroke:none;stroke-width:1px;stroke-linecap:butt;stroke-linejoin:miter;stroke-opacity:1"
     x="-5.335319"
     y="613.00653"
     id="text4136"
     sodipodi:linespacing="125%"
     transform="scale(0.86313583,1.1585662)"><tspan
       sodipodi:role="line"
       id="tspan4138"
       x="-5.335319"
       y="613.00653">4</tspan></text>
</svg>