<?xml version="1.0" encoding="iso-8859-1"?>
<!-- Generator: Adobe Illustrator 19.0.0, SVG Export Plug-In . SVG Version: 6.00 Build 0)  -->
<svg version="1.1" id="Capa_1" xmlns="http://www.w3.org/2000/svg" xmlns:xlink="http://www.w3.org/1999/xlink" x="0px" y="0px"
     viewBox="0 0 512 512" style="enable-background:new 0 0 512 512;" xml:space="preserve">
<path style="fill:#FFA754;" d="M184.75,0h-60v15h52.5v20c0,12.406-10.094,22.5-22.5,22.5h-75c-12.406,0-22.5-10.094-22.5-22.5V15
    h32.5l-10-15h-30c-4.143,0-7.5,3.357-7.5,7.5V35c0,20.678,16.822,37.5,37.5,37.5h75c20.678,0,37.5-16.822,37.5-37.5V7.5
    C192.25,3.357,188.893,0,184.75,0z"/>
<path style="fill:#808080;" d="M222.25,332.5v156.592l-24.87,8.29c-3.93,1.31-6.053,5.557-4.744,9.487
    c1.31,3.93,5.559,6.054,9.487,4.744l29.998-10c3.062-1.021,5.128-3.887,5.128-7.115V352.5L222.25,332.5z"/>
<path style="fill:#696969;" d="M297.25,332.5v156.592l24.87,8.29c3.93,1.31,6.053,5.557,4.744,9.487
    c-1.31,3.93-5.559,6.054-9.487,4.744l-29.998-10c-3.062-1.021-5.128-3.887-5.128-7.115V352.5L297.25,332.5z"/>
<g>
    <path style="fill:#2DADE3;" d="M124.75,185c-4.136,0-7.5-3.364-7.5-7.5s3.364-7.5,7.5-7.5h15c4.143,0,7.5-3.357,7.5-7.5
        s-3.357-7.5-7.5-7.5h-15c-12.406,0-22.5,10.094-22.5,22.5s10.094,22.5,22.5,22.5h135v-15H124.75z"/>
    <path style="fill:#2DADE3;" d="M409.75,95c-4.143,0-7.5,3.357-7.5,7.5c0,45.49-37.01,82.5-82.5,82.5h-60v15h60
        c53.762,0,97.5-43.738,97.5-97.5C417.25,98.357,413.893,95,409.75,95z"/>
</g>
<path style="fill:#4F4F4F;" d="M447.25,432h-15v-42.5h-45V432h-15v-50c0-4.143,3.357-7.5,7.5-7.5h60c4.143,0,7.5,3.357,7.5,7.5V432z
    "/>
<g>
    <path style="fill:#FFA754;" d="M147.25,145h-60c-4.143,0-7.5-3.357-7.5-7.5s3.357-7.5,7.5-7.5h60c4.143,0,7.5,3.357,7.5,7.5
        S151.393,145,147.25,145z"/>
    <path style="fill:#FFA754;" d="M117.25,72.5v65V72.5z"/>
    <rect x="109.75" y="72.5" style="fill:#FFA754;" width="15" height="65"/>
    <path style="fill:#FFA754;" d="M124.75,7.5l-7.5,95c20.711,0,37.5-16.789,37.5-37.5s0-57.5,0-57.5H124.75z"/>
</g>
<path style="fill:#FFCB63;" d="M124.75,65c0-20.711,0-65,0-65h-45c0,0,0,44.289,0,65s16.789,37.5,37.5,37.5
    C121.392,102.5,124.75,85.711,124.75,65z"/>
<path style="fill:#696969;" d="M244.75,247.5l15,90c24.853,0,45-20.147,45-45L244.75,247.5z"/>
<path style="fill:#808080;" d="M214.75,292.5c0,24.853,20.147,45,45,45v-90L214.75,292.5z"/>
<polygon style="fill:#DBF4FF;" points="282.25,172.5 267.25,172.488 229.75,232.494 259.75,292.488 309.75,292.5 "/>
<polygon style="fill:#FFFFFF;" points="259.75,182.488 252.25,172.491 237.25,172.5 209.75,292.5 259.75,292.488 "/>
<g>
    <path style="fill:#2DADE3;" d="M219.756,172.5c-11.046,0-20,8.954-20,20l-0.006,160h37.5v-180H219.756z"/>
    <path style="fill:#2DADE3;" d="M299.75,172.5h-17.5v180h37.5v-160C319.75,181.454,310.796,172.5,299.75,172.5z"/>
</g>
<path style="fill:#FF6337;" d="M252.25,172.5v89.988c0,4.143,3.357,7.5,7.5,7.5c4.143,0,7.5-3.357,7.5-7.5V172.5H252.25z"/>
<circle style="fill:#FFCB63;" cx="409.75" cy="22.5" r="15"/>
<circle style="fill:#49C9FF;" cx="454.75" cy="67.5" r="15"/>
<circle style="fill:#FFCB63;" cx="454.75" cy="127.5" r="7.5"/>
<g>
    <circle style="fill:#FF4128;" cx="364.75" cy="67.5" r="7.5"/>
    <circle style="fill:#FF4128;" cx="454.75" cy="22.5" r="7.5"/>
</g>
<polygon style="fill:#4F4F4F;" points="394.75,414.5 439.75,494.5 469.75,494.5 469.75,434.5 "/>
<polygon style="fill:#696969;" points="349.75,434.5 349.75,494.5 439.75,494.5 439.75,414.5 "/>
<path style="fill:#CCCCCC;" d="M402.25,424.5v25c0,4.143,3.357,7.5,7.5,7.5s7.5-3.357,7.5-7.5v-25H402.25z"/>
<polygon style="fill:#696969;" points="439.75,404.5 404.75,419.5 439.75,434.5 469.75,434.5 469.75,404.5 "/>
<rect x="349.75" y="404.5" style="fill:#808080;" width="90" height="30"/>
<path style="fill:#FFB4A9;" d="M286.75,61.5h-27v81c24.85,0,45-20.15,45-45C304.75,82.78,297.68,69.7,286.75,61.5z"/>
<path style="fill:#FFD9D4;" d="M272.95,76.14c1.15,6.36,1.8,13.63,1.8,21.36c0,24.85-6.72,45-15,45c-24.85,0-45-20.15-45-45
    L272.95,76.14z"/>
<path style="fill:#40211D;" d="M286.75,61.5c-4.04,5.38-8.67,10.29-13.8,14.64l-13.2-23.64C269.87,52.5,279.23,55.85,286.75,61.5z"
    />
<path style="fill:#60312C;" d="M214.75,97.5c0-24.85,20.15-45,45-45c5.7,0,10.67,9.56,13.2,23.64
    C257.26,89.46,236.94,97.5,214.75,97.5z"/>
<g>
</g>
<g>
</g>
<g>
</g>
<g>
</g>
<g>
</g>
<g>
</g>
<g>
</g>
<g>
</g>
<g>
</g>
<g>
</g>
<g>
</g>
<g>
</g>
<g>
</g>
<g>
</g>
<g>
</g>
</svg>