<?xml version="1.0" encoding="iso-8859-1"?>
<!-- Generator: Adobe Illustrator 16.0.0, SVG Export Plug-In . SVG Version: 6.00 Build 0)  -->
<!DOCTYPE svg PUBLIC "-//W3C//DTD SVG 1.1//EN" "http://www.w3.org/Graphics/SVG/1.1/DTD/svg11.dtd">
<svg version="1.1" id="Capa_1" xmlns="http://www.w3.org/2000/svg" xmlns:xlink="http://www.w3.org/1999/xlink" x="0px" y="0px"
	 width="33.93px" height="33.93px" viewBox="0 0 33.93 33.93" style="enable-background:new 0 0 33.93 33.93;" xml:space="preserve" fill="#cccc00"
	>
<g>
	<g>
		<polygon points="29.896,26.879 29.896,17.758 26.706,14.569 23.517,17.758 23.517,26.879 20.482,26.879 20.482,6.051
			16.398,6.051 13.447,9.719 13.447,26.879 10.413,26.879 10.413,13.43 2.69,13.43 2.69,26.879 0,26.879 0,27.879 3.69,27.879
			3.69,14.43 9.413,14.43 9.413,27.879 14.447,27.879 14.447,10.072 16.877,7.051 19.482,7.051 19.482,27.879 24.517,27.879
			24.517,18.172 26.706,15.983 28.896,18.172 28.896,27.879 33.93,27.879 33.93,26.879 		"/>
		<rect x="4.57" y="15.403" width="1.49" height="1.194"/>
		<rect x="7.08" y="15.403" width="1.49" height="1.194"/>
		<rect x="4.57" y="17.418" width="1.49" height="1.195"/>
		<rect x="7.08" y="17.418" width="1.49" height="1.195"/>
		<rect x="4.57" y="19.434" width="1.49" height="1.195"/>
		<rect x="7.08" y="19.434" width="1.49" height="1.195"/>
		<rect x="4.57" y="21.447" width="1.49" height="1.195"/>
		<rect x="7.08" y="21.447" width="1.49" height="1.195"/>
		<rect x="4.57" y="23.463" width="1.49" height="1.195"/>
		<rect x="7.08" y="23.463" width="1.49" height="1.195"/>
		<rect x="4.57" y="25.479" width="1.49" height="1.195"/>
		<rect x="7.08" y="25.479" width="1.49" height="1.195"/>
		<rect x="25.09" y="19.021" width="1.195" height="1.195"/>
		<rect x="27.105" y="19.023" width="1.194" height="1.195"/>
		<rect x="25.09" y="21.037" width="1.195" height="1.195"/>
		<rect x="27.105" y="21.037" width="1.194" height="1.195"/>
		<rect x="25.09" y="23.053" width="1.195" height="1.195"/>
		<rect x="17.375" y="8.162" width="1.195" height="1.742"/>
		<rect x="17.375" y="11.098" width="1.195" height="1.742"/>
		<rect x="15.36" y="14.033" width="1.195" height="1.741"/>
		<rect x="17.375" y="14.033" width="1.195" height="1.742"/>
		<rect x="15.36" y="16.968" width="1.195" height="1.743"/>
		<rect x="17.375" y="16.969" width="1.195" height="1.742"/>
		<rect x="15.36" y="19.904" width="1.195" height="1.74"/>
		<rect x="17.375" y="19.904" width="1.195" height="1.742"/>
		<rect x="15.36" y="22.84" width="1.195" height="1.74"/>
		<rect x="17.375" y="22.84" width="1.195" height="1.742"/>
	</g>
</g>
<g>
</g>
<g>
</g>
<g>
</g>
<g>
</g>
<g>
</g>
<g>
</g>
<g>
</g>
<g>
</g>
<g>
</g>
<g>
</g>
<g>
</g>
<g>
</g>
<g>
</g>
<g>
</g>
<g>
</g>
</svg>
