<?xml version="1.0" encoding="iso-8859-1"?>
<!-- Generator: Adobe Illustrator 18.1.1, SVG Export Plug-In . SVG Version: 6.00 Build 0)  -->
<svg xmlns="http://www.w3.org/2000/svg" xmlns:xlink="http://www.w3.org/1999/xlink" version="1.1" id="Capa_1" x="0px" y="0px" viewBox="0 0 17.086 17.086" style="enable-background:new 0 0 17.086 17.086;" xml:space="preserve">
<g>
	<g>
		<path d="M16.106,6.815c-1.485,2.444-3.72,1.509-4.294,1.22c-0.573-0.29-1.388-1.045-1.388-1.045h-5.27    c0,0-0.003,0.03-0.006,0.081c-2.932-0.735-4.797-0.59-5.075-0.089c-0.15,0.271-0.595,1.08,5.206,4.261    c0.358,0.343,0.661,0.609,1.25,0.748c-0.225,0.226-0.358,0.5-0.358,0.798h3.893c0-0.284-0.121-0.548-0.328-0.768    c2.147-0.289,1.398-2.05,3.937-2.31c1.564-0.249,3.142-1.305,3.413-2.89L16.106,6.815z M4.342,9.681    C2.82,8.771,1.493,7.867,1.109,7.408c0.001,0,0.002,0,0.003,0c0.338,0,1.924,0.083,3.714,0.542C4.85,8.443,4.14,9.067,4.342,9.681    z" fill="#000000"/>
		<path d="M8.582,5.264c0.001-0.022,0.007-0.043,0.007-0.066c0-0.497-0.406-0.9-0.907-0.9    s-0.907,0.403-0.907,0.9c0,0.022,0.005,0.044,0.007,0.066C6.263,5.778,5.719,6.405,5.719,6.405h3.925    C9.644,6.405,9.1,5.779,8.582,5.264z" fill="#000000"/>
	</g>
</g>
</svg>
