<?xml version="1.0" encoding="iso-8859-1"?>
<!-- Generator: Adobe Illustrator 19.0.0, SVG Export Plug-In . SVG Version: 6.00 Build 0)  -->
<svg version="1.1" id="Layer_1" xmlns="http://www.w3.org/2000/svg" xmlns:xlink="http://www.w3.org/1999/xlink" x="0px" y="0px"
	 viewBox="0 0 512 512" style="enable-background:new 0 0 512 512;" xml:space="preserve">
<rect x="129.011" y="42.898" style="fill:#C1272D;" width="253.981" height="426.194"/>
<rect x="166.462" y="95.424" style="fill:#FBB03B;" width="179.343" height="320.704"/>
<rect x="194.966" y="194.834" transform="matrix(-0.7071 -0.7071 0.7071 -0.7071 256.2291 618.1401)" style="fill:#C1272D;" width="122.338" height="122.338"/>
<path d="M118.814,501.801c0,5.633,4.567,10.199,10.199,10.199c5.632,0,10.199-4.566,10.199-10.199v-22.504h30.238v22.504
	c0,5.633,4.567,10.199,10.199,10.199s10.199-4.566,10.199-10.199v-22.504h30.239v22.504c0,5.633,4.567,10.199,10.199,10.199
	c5.632,0,10.199-4.566,10.199-10.199v-22.504h31.03v22.504c0,5.633,4.567,10.199,10.199,10.199s10.199-4.566,10.199-10.199v-22.504
	h30.239v22.504c0,5.633,4.567,10.199,10.199,10.199c5.632,0,10.199-4.566,10.199-10.199v-22.504h30.238v22.504
	c0,5.633,4.567,10.199,10.199,10.199c5.632,0,10.199-4.566,10.199-10.199V10.199C393.186,4.566,388.619,0,382.987,0
	c-5.632,0-10.199,4.566-10.199,10.199v22.504h-30.237V10.199C342.551,4.566,337.984,0,332.352,0
	c-5.632,0-10.199,4.566-10.199,10.199v22.504h-30.239V10.199C291.914,4.566,287.347,0,281.715,0
	c-5.632,0-10.199,4.566-10.199,10.199v22.504h-31.03V10.199C240.486,4.566,235.919,0,230.287,0s-10.199,4.566-10.199,10.199v22.504
	h-30.239V10.199C189.849,4.566,185.282,0,179.65,0s-10.199,4.566-10.199,10.199v22.504h-30.238V10.199
	C139.213,4.566,134.646,0,129.014,0s-10.199,4.566-10.199,10.199v491.602H118.814z M139.212,53.101H372.79v405.797H139.212V53.101z"
	/>
<path d="M345.803,85.227h-179.34c-5.632,0-10.199,4.566-10.199,10.199v320.702c0,5.633,4.567,10.199,10.199,10.199h179.34
	c5.632,0,10.199-4.566,10.199-10.199V95.426C356.002,89.793,351.435,85.227,345.803,85.227z M335.604,105.625v128.917
	l-72.259-72.259c-3.984-3.983-10.44-3.983-14.425,0l-72.258,72.258V105.625H335.604z M328.213,256l-72.081,72.081L184.052,256
	l72.081-72.081L328.213,256z M176.662,405.928V277.459l72.258,72.258c1.992,1.992,4.602,2.987,7.212,2.987s5.22-0.995,7.212-2.987
	l72.259-72.259v128.47H176.662z"/>
<path d="M319.236,170.327c5.632,0,10.199-4.566,10.199-10.199V125.45c0-5.633-4.567-10.199-10.199-10.199
	c-5.632,0-10.199,4.566-10.199,10.199v34.677C309.037,165.761,313.604,170.327,319.236,170.327z"/>
<path d="M319.236,201.944c5.632,0,10.199-4.566,10.199-10.199v-3.06c0-5.633-4.567-10.199-10.199-10.199
	c-5.632,0-10.199,4.566-10.199,10.199v3.06C309.037,197.378,313.604,201.944,319.236,201.944z"/>
<g>
</g>
<g>
</g>
<g>
</g>
<g>
</g>
<g>
</g>
<g>
</g>
<g>
</g>
<g>
</g>
<g>
</g>
<g>
</g>
<g>
</g>
<g>
</g>
<g>
</g>
<g>
</g>
<g>
</g>
</svg>
