<?xml version="1.0" encoding="iso-8859-1"?>
<!-- Generator: Adobe Illustrator 19.0.0, SVG Export Plug-In . SVG Version: 6.00 Build 0)  -->
<svg xmlns="http://www.w3.org/2000/svg" xmlns:xlink="http://www.w3.org/1999/xlink" version="1.1" id="Capa_1" x="0px" y="0px" viewBox="0 0 512.001 512.001" style="enable-background:new 0 0 512.001 512.001;" xml:space="preserve">
<g>
	<g>
		<path class="logo" d="M113.073,380.92c-22.935-2.804-43.029,9.755-52.915,28.591c-5.101,9.365-7.777,20.197-7.548,30.798    c0.284,13.168,4.854,26.975,14.868,35.96c10.554,9.469,25.274,12.643,39.115,12.508c13.261-0.129,26.846-3.386,37.035-12.276    c10.878-9.491,15.412-24.502,16.259-38.493C161.59,409.881,141.265,384.367,113.073,380.92z M137.249,402.087    c4.306,4.016,7.827,8.889,10.226,14.447c-3.428,1.193-6.768,4.375-9.424,6.209c-1.056,0.729-2.27,1.496-3.452,2.341    c-1.399-4.863-3.998-9.081-7.409-12.408c1.519-1.151,2.916-2.506,4.182-3.663C133.517,407.051,136.404,404.901,137.249,402.087z     M132.441,398.188c-2.511,1.043-4.571,3.631-6.388,5.506c-1.403,1.448-3.046,3.049-4.323,4.826    c-0.731-0.427-1.479-0.828-2.248-1.188c0.13-1.232,0.122-2.514,0.115-3.755c-0.024-3.954-0.189-7.966-0.773-11.895    C123.727,393.089,128.329,395.303,132.441,398.188z M102.914,389.994c3.134-0.216,6.235-0.099,9.266,0.304    c-0.332,4.701-0.238,9.513-0.132,14.216c0.004,0.172,0.008,0.343,0.012,0.514c-3.592-0.594-7.385-0.523-11.226,0.331    c-0.124,0.028-0.244,0.064-0.368,0.093c-0.036-2.43-0.459-4.954-0.556-7.095c-0.117-2.569-0.006-5.347-0.321-8    C100.686,390.201,101.792,390.071,102.914,389.994z M92.82,391.842c-0.238,2.536-0.156,5.157-0.179,7.451    c-0.028,2.897-0.392,6.226,0.321,9.101c-1.08,0.617-2.102,1.32-3.086,2.071c-1.771-1.646-3.812-3.09-5.56-4.56    c-2.402-2.021-4.762-4.249-7.592-5.487C81.424,396.585,86.867,393.631,92.82,391.842z M72.573,404.221    c0.068-0.071,0.143-0.135,0.212-0.206c1.48,2.778,4.077,4.905,6.39,7.03c1.725,1.584,3.431,3.322,5.226,4.927    c-1.363,1.828-2.516,3.834-3.419,5.991c-0.691,1.651-1.296,3.545-1.741,5.553c-2.485-0.946-5.023-1.639-6.324-2.262    c-0.744-0.357-5.834-3.554-9.389-4.429C65.62,414.858,68.682,409.21,72.573,404.221z M63.677,456.559    c-1.156-2.895-2.016-5.942-2.567-9.079c-1.207-6.868-0.892-13.912,0.682-20.695c3.402,4.281,10.998,8.453,16.756,9.568    c0.125,1.556,0.397,3.076,0.86,4.502c0.152,0.863,0.354,1.71,0.582,2.547c-3.667,1.664-7.003,4.412-10.039,6.907    C67.909,451.988,65.267,454.084,63.677,456.559z M66.305,461.953c3.07-1.034,5.803-3.819,8.269-5.655    c2.679-1.994,5.729-3.73,8.426-5.793c1.593,2.666,3.63,5.037,6.007,7.029c-1.96,1.638-3.717,3.606-5.077,4.926    c-2.915,2.83-6.437,6.065-8.406,9.86C71.713,469.499,68.652,465.959,66.305,461.953z M94.56,470.182    c-0.082,3.15-0.248,6.308-0.081,9.447c-4.899-0.73-9.657-2.105-13.985-4.277c3.005-1.979,5.655-4.725,8.259-6.997    c1.599-1.395,4.126-3.053,6.193-4.979C94.632,465.609,94.619,467.903,94.56,470.182z M114.56,479.479    c-3.985,0.593-8.167,0.884-12.362,0.79c0.23-3.349,0.044-6.723-0.043-10.086c-0.058-2.255-0.074-4.523-0.376-6.732    c1.128,0.192,2.273,0.341,3.455,0.392c3.403,0.149,6.718-0.429,9.837-1.566c-0.288,2.608-0.202,5.314-0.221,7.795    c-0.022,2.887-0.458,6.371,0.267,9.315C114.931,479.416,114.746,479.452,114.56,479.479z M89.322,439.981    c-4.261-19.039,23.681-34.794,33.502-14.809c3.405,6.929,1.504,13.514-2.537,19.696    C112.041,457.484,92.797,455.504,89.322,439.981z M123.156,477.533c0.098-2.46-0.387-5.081-0.6-7.461    c-0.307-3.432-0.414-7.374-1.562-10.774c0.253-0.165,0.495-0.349,0.744-0.522c1.795,2.137,4.09,3.924,6.264,5.568    c2.825,2.136,5.989,4.27,9.354,5.613C133.262,473.458,128.365,475.91,123.156,477.533z M143.135,463.444    c-0.164,0.249-0.338,0.486-0.508,0.728c-0.027-0.018-0.047-0.04-0.075-0.058c-3.294-2.104-6.95-3.614-10.251-5.755    c-1.87-1.213-3.613-2.683-5.427-4.022c2.872-3.054,5.183-6.662,6.729-10.541c2.195,1.248,4.704,2.098,6.971,2.868    c2.629,0.894,5.754,2.212,8.736,2.467C147.985,454.285,145.934,459.199,143.135,463.444z M150.769,441.143    c-2.649-0.888-5.757-1.138-8.187-1.761c-2.314-0.592-4.769-1.434-7.225-1.831c0.273-1.642,0.404-3.305,0.379-4.971    c2.493-1.088,4.97-2.955,6.62-3.979c2.258-1.402,5.237-2.771,7.561-4.613c0.21,0.925,0.404,1.856,0.555,2.806    C151.201,431.381,151.297,436.273,150.769,441.143z" fill="#000000"/>
	</g>
</g>
<g>
	<g>
		<path d="M423.364,380.919c-22.934-2.804-43.028,9.756-52.914,28.592c-5.101,9.365-7.777,20.197-7.548,30.798    c0.284,13.168,4.854,26.975,14.868,35.96c10.554,9.469,25.274,12.643,39.115,12.508c13.261-0.129,26.846-3.386,37.035-12.276    c10.879-9.491,15.412-24.502,16.259-38.493C471.882,409.88,451.557,384.366,423.364,380.919z M447.541,402.087    c4.306,4.016,7.827,8.889,10.226,14.447c-3.428,1.193-6.769,4.375-9.424,6.209c-1.056,0.729-2.27,1.496-3.452,2.341    c-1.399-4.863-3.998-9.081-7.409-12.408c1.519-1.151,2.917-2.506,4.182-3.663C443.809,407.051,446.696,404.902,447.541,402.087z     M442.733,398.188c-2.511,1.043-4.571,3.631-6.388,5.506c-1.403,1.448-3.046,3.049-4.323,4.826    c-0.731-0.427-1.479-0.828-2.248-1.188c0.13-1.232,0.122-2.514,0.115-3.755c-0.024-3.954-0.189-7.966-0.773-11.895    C434.019,393.089,438.621,395.303,442.733,398.188z M413.206,389.993c3.134-0.216,6.235-0.099,9.266,0.304    c-0.331,4.701-0.238,9.514-0.132,14.216c0.004,0.172,0.008,0.343,0.012,0.514c-3.592-0.594-7.385-0.523-11.226,0.331    c-0.124,0.028-0.244,0.064-0.368,0.093c-0.036-2.43-0.459-4.954-0.557-7.095c-0.117-2.569-0.006-5.347-0.32-8    C410.978,390.2,412.085,390.07,413.206,389.993z M403.112,391.842c-0.238,2.536-0.156,5.157-0.178,7.451    c-0.028,2.897-0.392,6.226,0.32,9.101c-1.08,0.617-2.102,1.32-3.086,2.071c-1.771-1.646-3.812-3.09-5.56-4.56    c-2.402-2.021-4.762-4.249-7.592-5.487C391.716,396.585,397.159,393.631,403.112,391.842z M382.865,404.221    c0.068-0.071,0.143-0.135,0.212-0.206c1.481,2.778,4.077,4.905,6.391,7.03c1.725,1.584,3.431,3.322,5.226,4.927    c-1.363,1.828-2.516,3.834-3.419,5.991c-0.691,1.651-1.296,3.545-1.741,5.553c-2.485-0.946-5.023-1.639-6.323-2.262    c-0.744-0.357-5.834-3.554-9.389-4.429C375.912,414.858,378.974,409.21,382.865,404.221z M373.969,456.559    c-1.156-2.895-2.016-5.942-2.567-9.079c-1.207-6.868-0.892-13.912,0.682-20.695c3.401,4.281,10.998,8.453,16.756,9.568    c0.125,1.556,0.398,3.076,0.86,4.502c0.152,0.863,0.354,1.71,0.582,2.547c-3.667,1.664-7.003,4.412-10.039,6.907    C378.2,451.988,375.559,454.084,373.969,456.559z M376.597,461.953c3.07-1.034,5.803-3.819,8.269-5.655    c2.679-1.994,5.729-3.73,8.426-5.793c1.593,2.666,3.63,5.037,6.007,7.029c-1.96,1.638-3.717,3.606-5.077,4.926    c-2.915,2.83-6.437,6.065-8.406,9.86C382.005,469.499,378.944,465.959,376.597,461.953z M404.851,470.182    c-0.082,3.15-0.248,6.308-0.081,9.447c-4.899-0.73-9.657-2.105-13.985-4.277c3.005-1.979,5.655-4.725,8.259-6.997    c1.599-1.395,4.126-3.053,6.193-4.979C404.924,465.609,404.911,467.903,404.851,470.182z M424.852,479.479    c-3.985,0.593-8.167,0.884-12.362,0.79c0.23-3.349,0.044-6.723-0.043-10.086c-0.058-2.255-0.074-4.523-0.376-6.732    c1.128,0.192,2.273,0.341,3.455,0.392c3.403,0.149,6.718-0.429,9.837-1.566c-0.288,2.608-0.202,5.314-0.221,7.795    c-0.022,2.887-0.458,6.371,0.267,9.315C425.223,479.416,425.038,479.452,424.852,479.479z M399.614,439.982    c-4.261-19.039,23.681-34.795,33.502-14.809c3.405,6.929,1.503,13.514-2.538,19.696    C422.332,457.484,403.088,455.504,399.614,439.982z M433.448,477.533c0.098-2.46-0.387-5.081-0.6-7.461    c-0.307-3.432-0.414-7.374-1.562-10.774c0.253-0.165,0.495-0.349,0.744-0.522c1.795,2.137,4.09,3.924,6.264,5.568    c2.825,2.136,5.989,4.27,9.354,5.613C443.553,473.458,438.656,475.91,433.448,477.533z M453.427,463.444    c-0.164,0.249-0.338,0.486-0.508,0.728c-0.027-0.018-0.047-0.04-0.075-0.058c-3.294-2.104-6.95-3.614-10.251-5.755    c-1.87-1.213-3.613-2.683-5.427-4.022c2.872-3.054,5.184-6.662,6.729-10.541c2.195,1.248,4.704,2.098,6.971,2.868    c2.629,0.894,5.754,2.212,8.736,2.467C458.277,454.285,456.225,459.199,453.427,463.444z M461.061,441.143    c-2.649-0.888-5.757-1.138-8.187-1.761c-2.314-0.592-4.769-1.434-7.225-1.831c0.273-1.642,0.404-3.305,0.379-4.971    c2.493-1.088,4.97-2.955,6.62-3.979c2.258-1.402,5.237-2.771,7.561-4.613c0.21,0.925,0.404,1.856,0.555,2.806    C461.493,431.381,461.589,436.273,461.061,441.143z" fill="#000000"/>
	</g>
</g>
<g>
	<g>
		<path d="M511.938,323.513c-0.377-8.226-2.099-15.848-11.23-17.696c-9.35-1.892-19.278-1.463-28.803-1.223    c0.431-2.369,0.466-4.933,0.712-7.259c0.702-6.642,1.29-13.3,1.528-19.977c0.215-6.005-0.267-12.042,0.251-18.034    c0.216-2.505,0.885-5.307,0.992-7.984c0.358-0.134,0.717-0.251,1.074-0.402c11.941-5.069,18.363-19.768,13.81-31.984    c-5.79-15.533-25.888-17.188-39.972-18.353c-7.346-0.607-14.726-0.941-22.118-1.116c2.779-4.088,4.991-8.644,6.774-12.541    c4.339-9.482,7.063-19.73,7.055-30.21c-0.014-18.556-8.961-37.35-24.901-47.348c-16.044-10.064-38.211-9.598-56.808-5.154    c6.397-8.218,10.737-18.155,12.125-29.391c3.809-30.825-17.562-57.862-46.56-65.961c-15.356-4.289-31.93-5.012-46.448,2.331    c-12.68,6.413-22.405,17.944-27.523,31.091c-1.178,3.025-2.101,6.149-2.799,9.33c-5.57-17.956-18.876-33.29-36.759-40.762    c-28.177-11.774-61.508-1.121-76.637,25.671c-8.771,15.532-12.736,34.583-9.393,52.198c0.745,3.925,1.934,7.802,3.525,11.505    c1.069,4.094,3.165,8.035,5.81,11.6c-33.153-8.345-72.417,6.303-82.826,40.97c-4.829,16.082-2.266,36.826,8.613,50.395    c-3.203,0.164-6.405,0.466-9.61,0.973c-7.355,1.163-14.495,3.513-20.946,7.279c-5.633,3.289-12.475,8.118-14.218,14.824    c-1.734,6.673,2.842,11.104,8.788,12.748c1.389,0.384,2.802,0.711,4.226,1.012c-0.672,6.216,0.03,12.61,0.49,18.802    c0.588,7.91,1.196,15.82,1.871,23.723c0.624,7.308,1.022,14.684,2.176,21.933c0.19,1.193,0.432,2.679,0.796,4.218    c-11.495,0.894-22.849,3.474-29.89,12.387c-4.569,5.784-6.633,13.521-3.857,20.554c1.621,4.107,4.651,7.488,8.432,9.419    c-2.634,7.286-1.222,15.861,4.858,21.391c6.21,5.647,15.804,5.952,22.894,1.943c3.232,3.864,8.078,6.306,13.285,6.722    c1.506,0.12,2.958,0.059,4.372-0.123c-3.376,2.761-6.448,5.875-9.055,9.418c-5.256,7.144-8.327,15.738-10.278,24.486    c-2.349,7.198-3.616,14.708-3.591,22.196c0.025,7.672,1.138,15.551,3.415,23.056c1.298,4.72,3.108,9.225,5.55,13.263    c3.822,6.954,8.9,13.149,15.36,17.941c17.82,13.221,42.568,17.175,64.131,13.845c45.412-7.013,68.201-56.605,54.871-98.402    c-3.931-12.326-11.555-22.587-21.443-30.238c7.032-1.934,14.073-5.861,19.912-9.802c2.988,5.332,8.492,9.193,14.784,10.15    c5.458,0.83,10.81-0.447,15.724-2.839c2.657-1.294,5.147-2.947,7.445-4.8c0.948-0.764,1.873-1.568,2.747-2.416    c0.033,0.088,0.062,0.169,0.1,0.271c3.472,9.323,12.792,14.894,22.349,15.707c9.365,0.797,17.907-3.296,25.445-8.55    c1.753,2.437,3.753,4.656,6.394,6.407c4.524,2.999,10.178,4.364,15.566,4.358c6.019-0.007,11.84-1.802,17.221-4.391    c3.206-1.542,6.147-3.48,9.177-5.327c3.1-1.889,2.926-2.044,5.826,0.115c19.124,14.241,41.08,3.567,57.377-9.677    c1.762,2.167,3.849,4.176,6.149,5.886c-9.2,4.499-17.834,10.462-23.939,18.76c-5.256,7.144-8.327,15.738-10.278,24.486    c-2.349,7.198-3.616,14.708-3.591,22.196c0.025,7.672,1.139,15.551,3.415,23.056c1.298,4.72,3.108,9.225,5.551,13.263    c3.822,6.954,8.9,13.149,15.36,17.941c17.82,13.221,42.568,17.175,64.131,13.845c45.412-7.013,68.201-56.605,54.871-98.402    c-5.829-18.275-19.752-32.03-37.19-39.413c1.779-1.053,3.454-2.223,4.988-3.452c9.647,9.032,24.468,10.593,36.512,4.116    C506.077,359.479,512.73,340.79,511.938,323.513z M406.35,116.202c14.069,5.917,22.686,20.998,23.803,35.84    c0.719,9.547-1.43,19.246-5.434,27.901c-1.982,4.284-4.388,8.372-7.084,12.244c-1.637,2.351-3.483,4.65-4.93,7.137    c-3.429,0.003-6.856,0.032-10.281,0.065c2.033-3.01,3.863-6.103,5.543-8.771c4.868-7.731,8.997-16.041,11.446-24.87    c4.404-15.879,1.028-30.984-12.946-40.748c-14.163-9.896-32.569-8.415-47.8-1.912c-15.047,6.424-30.041,17.959-32.399,35.198    c-1.386,10.134,1.453,20.179,5.958,29.195c1.878,3.759,4.506,9.511,8.005,13.805c-1.815,0.133-3.629,0.269-5.442,0.424    c-0.839,0.014-1.678,0.034-2.517,0.048c-0.06-0.221-0.135-0.441-0.244-0.658c-3.662-7.252-9.888-12.593-12.994-20.287    c-3.205-7.939-4.413-16.565-2.818-25.025c3.451-18.299,17.451-30.691,34.31-37.075C367.152,112.42,389.472,109.104,406.35,116.202    z M402.388,185.225c-2.279,3.658-4.767,7.191-7.361,10.631c-0.936,1.242-1.924,2.439-2.884,3.649    c-1.023,0.013-2.049,0.025-3.071,0.037c-13.593,0.171-27.196,0.438-40.765,1.213c-2.285-2.81-4.056-6.141-5.878-9.192    c-2.473-4.142-4.841-8.399-6.548-12.92c-3.633-9.623-4.478-20.578,0.96-29.72c8.993-15.117,30.519-24.707,47.692-23.834    c18.347,0.932,32.619,15.588,28.797,34.241C411.433,168.587,407.361,177.241,402.388,185.225z M283.341,193.286    c4.799-6.416,9.105-13.123,10.157-21.221c2.022-15.562-6.376-30.802-19.682-38.683c-29.291-17.349-70.771-0.281-79.094,32.721    c-2.17,8.603-2.262,18.09,2.189,25.99c2.111,3.747,5.748,8.829,10.046,12.319c-3.903,0.085-7.806,0.17-11.709,0.255    c-0.017-0.021-0.028-0.044-0.045-0.065c-9.436-11.373-15.232-23.755-12.738-38.914c2.601-15.808,13.764-28.297,27.417-35.95    c29.135-16.329,74.632-13.113,87.352,22.536c3.06,8.575,3.609,17.817,1.428,26.666c-2.278,9.245-7.425,16.227-12.835,23.742    c-3.347,0.074-6.692,0.148-10.038,0.222C278.532,199.751,281.033,196.371,283.341,193.286z M264.571,203.154    c-4.385,0.098-8.771,0.196-13.156,0.291c-11.36,0.247-22.719,0.494-34.079,0.741c-2.361-2.626-5.375-4.627-7.869-7.163    c-3.316-3.372-6.546-7.075-8.15-11.602c-2.971-8.383-0.521-18.688,3.355-26.353c8.328-16.468,26.422-26.136,44.658-25.562    c17.49,0.55,34.537,11.427,37.067,29.722c1.238,8.958-2.08,16.241-7.142,23.37C274.947,192.67,269.417,197.637,264.571,203.154z     M175.487,194.999c1.662,3.7,3.83,7.085,6.539,9.956c-3.499,0.076-6.997,0.152-10.496,0.228    C173.264,202.116,174.515,198.591,175.487,194.999z M167.075,131.768c6.521,1.57,13.304,2.18,19.935,1.901    c-4.413,4.674-8.108,9.964-10.823,15.843C174.168,142.944,171.079,136.973,167.075,131.768z M294.531,128.105    c5.287,1.063,10.725,1.46,16.134,1.18c2.213-0.115,4.402-0.342,6.568-0.656c-4.438,5.295-7.944,11.409-10.157,18.389    C304.173,139.923,299.863,133.523,294.531,128.105z M309.046,185.165c2.682,6.127,6.685,12.677,12.009,16.81    c-6.739,0.127-13.479,0.245-20.217,0.387C304.615,197.323,307.328,191.401,309.046,185.165z M259.428,55.857    c2.203-11.868,8.303-22.866,17.878-30.356c10.682-8.356,23.515-10.197,36.669-8.015c24.178,4.011,45.18,20.162,47.682,45.869    c2.476,25.428-15.568,47.242-39.599,53.338c-13.942,3.537-29.453,2.401-41.797-5.406c-10.508-6.645-16.336-17.322-19.899-28.828    C258.174,73.663,257.843,64.398,259.428,55.857z M249.98,85.904c0.845,3.248,1.894,6.426,3.143,9.494    c2.242,5.507,5.156,10.78,8.901,15.405c-7.974-1.593-16.413-1.873-24.808-0.937C243.136,103.017,247.588,94.924,249.98,85.904z     M140.63,51.711c8.838-24.399,33.007-39.866,58.997-33.78c23.228,5.439,40.539,25.877,41.77,49.773    c1.036,20.114-10.243,38.212-27.143,47.899c-2.995,1.191-5.912,2.547-8.73,4.063c-0.746,0.271-1.499,0.53-2.259,0.771    c-13.851,4.38-29.727,4.208-43.14-1.652c-1.524-0.666-3.003-1.416-4.437-2.239c-7.845-7.236-14.937-15.908-17.809-26.322    C134.377,77.527,136.201,63.94,140.63,51.711z M62.318,161.655c2.687-15.166,12.499-27.77,26.264-34.512    c26.716-13.086,66.62-5.995,76.729,24.871c2.828,8.633,3.297,17.586,2.423,26.586c-0.477,4.915-1.399,9.763-2.621,14.547    c-1.028,4.026-2.514,8.079-2.82,12.237c-4.238,0.092-8.476,0.184-12.715,0.276c-0.015,0-0.03,0.001-0.046,0.001    c2.423-3.725,4.264-8.015,5.774-11.647c3.16-7.603,5.036-15.686,5.495-23.912c0.913-16.341-5.84-29.505-20.699-36.848    c-13.868-6.853-30.784-7.946-45.017-1.54c-12.934,5.821-23.037,18.749-24.331,33.042c-0.784,8.658,1.986,17.189,5.553,24.967    c1.778,3.877,4.449,9.671,7.906,14.164c-2.92-0.24-5.839-0.461-8.759-0.61C66.356,190.722,59.474,177.705,62.318,161.655z     M144.637,199.379c-1.337,2.237-2.948,4.276-4.287,6.473c-14.243,0.275-28.493,0.359-42.704-0.805    c-1.817-0.149-3.633-0.309-5.449-0.47c-1.236-1.966-2.868-3.756-4.16-5.667c-2.415-3.572-4.621-7.295-6.467-11.195    c-4.032-8.515-6.378-17.514-3.92-26.836c4.434-16.815,20.443-27.262,37.422-27.151c15.832,0.103,35.677,8.643,38.45,26.003    c1.435,8.987-0.22,18.75-3.133,27.277C148.914,191.325,146.977,195.463,144.637,199.379z M30.877,230.668    c-4.037-1.085-5.553-1.345-1.866-4.723c2.36-2.162,5.444-3.793,8.316-5.146c12.194-5.745,26.21-6.198,39.411-5.361    c14.907,0.946,29.65,2.781,44.613,2.914c15.185,0.136,30.384-0.505,45.562-0.903c61.393-1.608,122.798-2.957,184.171-5.209    l38.683-1.419c0.517,0.122,1.06,0.111,1.575-0.058l11.744-0.431c2.368-0.087,4.733-0.192,7.096-0.307    c1.212,0.026,2.424,0.059,3.636,0.088c0.497,0.118,1.027,0.143,1.581,0.039c8.858,0.223,17.712,0.527,26.558,1.001    c10.839,0.58,40.644,0.248,37.793,17.73c-2.619,16.06-22.978,14.75-31.082,3.876c-2.107-2.827-5.854-3.781-8.62-1.111    c-3.95,3.814-8.484,8.419-13.863,10.1c-3.867,1.209-10.225,0.065-10.259-4.956c-0.045-6.544-8.76-7.14-10.885-1.473    c-2.765,7.372-11.069,10.807-18.477,10.687c-8.948-0.145-16.484-5.127-22.537-11.309c-2.885-2.946-7.1-1.802-9.288,1.197    c-5.726,7.849-18.015,10.072-26.417,5.318c-4.583-2.593-7.407-7.733-13.304-7.492c-6.071,0.248-10.997,5.744-16.632,7.683    c-12.531,4.313-23.94,1.882-34.634-5.368c-5.305-3.597-11.25-4.294-16.156,0.445c-4.273,4.128-7.219,7.801-13.48,8.969    c-4.76,0.888-9.979,0.093-13.993-2.715c-4.949-3.462-9.01-8.805-15.898-6.813c-5.521,1.597-7.684,7.535-12.322,10.469    c-4.724,2.988-10.525,4.16-15.997,2.861c-5.76-1.367-9.7-6.072-14.987-8.437c-5.166-2.311-10.731-1.736-15.547,1.144    c-4.535,2.712-7.702,7.612-12.385,9.976c-4.296,2.168-9.799,1.069-13.441-1.92c-4.849-3.978-3.998-11.417-10.83-13.623    c-6.386-2.061-14.582,3.062-20.081,5.723c-6.192,2.996-13.22,6.945-20.357,5.93c-5.626-0.801-11.292-4.447-10.702-10.674    c0.24-2.529-2.492-5.231-5.003-5.003C45.192,233.039,38.055,232.597,30.877,230.668z M458.982,304.953    c-1.048,0.033-2.097,0.051-3.145,0.088c-3.696-0.075-7.383-0.154-11.051-0.279c-18.273-0.623-36.55-1.06-54.833-1.262    c-37.229-0.411-74.468-0.94-111.699-0.874c-37.226,0.066-74.458,1.265-111.676,2.125c-37.231,0.86-74.373,1.156-111.574,3.172    c-2.453,0.133-5.045,0.201-7.715,0.27c-0.203-1.151-0.457-2.245-0.668-3.159c-1.686-7.307-1.897-15.016-2.573-22.464    c-0.686-7.553-1.453-15.098-2.201-22.645c-0.59-5.953-0.887-12.395-2.324-18.368c2.656,0.276,5.322,0.468,7.966,0.605    c1.259,9.042,9.824,15.719,19.084,17.38c6.76,1.212,13.281-0.506,19.527-3.079c3.47-1.429,6.831-3.078,10.231-4.662    c1.653-0.77,3.306-1.542,5.008-2.198c0.674-0.26,1.755-0.858,2.479-0.876c0.211-0.005,0.365-0.021,0.494-0.04    c0.051,0.068,0.113,0.144,0.204,0.235c1.651,1.671,2.325,5.315,3.953,7.341c1.869,2.329,4.177,4.327,6.773,5.822    c5.044,2.907,11.054,4.071,16.799,3.176c6.24-0.972,10.957-4.525,15.332-8.887c1.724-1.719,3.828-4.49,6.325-5.098    c3.431-0.836,6.581,2.563,9.068,4.436c9.976,7.512,24.107,8.432,34.974,2.096c2.713-1.582,5.266-3.675,7.309-6.062    c0.794-0.927,1.563-2.574,2.518-3.416c0.853,0.486,1.519,1.267,2.247,1.913c4.597,4.075,9.774,6.862,15.896,7.809    c6.097,0.944,12.278,0.233,17.961-2.182c2.746-1.167,5.163-2.65,7.403-4.632c1.255-1.11,3.945-5.829,5.242-6.124    c1.379-0.314,6.934,4.552,8.433,5.332c3.003,1.563,6.225,2.836,9.497,3.705c6.441,1.711,13.155,1.994,19.733,1.015    c3.713-0.552,7.168-1.605,10.604-3.113c1.691-0.742,3.338-1.556,4.913-2.524c1.545-0.949,3.423-3.153,5.066-3.677    c2.241-0.715,5.267,3.533,7.376,4.969c2.598,1.769,5.565,3.094,8.592,3.941c10.557,2.953,22.28-0.094,30.063-7.59    c8.349,6.467,18.358,11.621,29.026,10.983c8.03-0.48,15.509-4.191,20.61-10.065c3.087,2.893,7.223,4.75,11.698,5.181    c8.78,0.846,15.833-4.014,21.847-9.764c5.424,5.14,12.335,8.68,19.582,9.406c-1.848,7.104-1.265,16.34-1.471,21.285    c-0.264,6.335-0.806,12.643-1.526,18.942C459.952,296.693,458.675,301.098,458.982,304.953z M159.259,400.474    c17.808,30.285,4.759,78.04-29.548,90.086c-18.099,6.355-38.743,4.432-56.246-2.901c-10.306-4.318-18.025-11.528-23.262-20.489    c-4.964-10.056-7.396-20.852-6.517-33.163c0.686-9.605,3.172-19.863,7.105-28.675c1.15-2.576,2.545-4.908,4.116-7.07    c1.105-1.442,2.257-2.85,3.496-4.184c0.213-0.229,0.439-0.442,0.655-0.667c2.984-2.97,6.415-5.529,10.251-7.754    C97.861,369.088,140.703,368.918,159.259,400.474z M469.551,400.474c17.808,30.285,4.759,78.04-29.548,90.086    c-18.099,6.355-38.743,4.432-56.246-2.901c-10.306-4.318-18.025-11.528-23.262-20.489c-4.964-10.056-7.396-20.852-6.517-33.163    c0.686-9.605,3.172-19.863,7.105-28.675c1.15-2.576,2.545-4.908,4.116-7.07c1.105-1.442,2.257-2.85,3.496-4.184    c0.213-0.229,0.439-0.442,0.655-0.667c2.984-2.97,6.415-5.529,10.251-7.754C408.153,369.088,450.995,368.918,469.551,400.474z     M498.889,335.587c-1.263,6.316-3.914,12.348-8.465,16.988c-8.437,8.603-23.847,10.883-31.111-0.554    c-1.904-2.999-6.974-4.421-9.554-1.231c-3.373,4.17-7.308,7.158-12.337,9.083c-3.333,1.276-6.864,1.587-10.286,2.284    c-10.093-0.844-20.368,0.33-30.165,3.096c-6.723-0.718-13.056-2.971-15.549-10.356c-1.541-4.565-6.632-5.737-10.217-2.698    c-7.612,6.454-15.87,13.39-25.648,16.177c-4.474,1.275-9.304,1.691-13.873,0.65c-4.99-1.137-7.745-4.422-11.999-6.808    c-9.362-5.251-19.184,4.936-27.62,7.83c-4.035,1.384-8.354,2.133-12.533,0.904c-5.116-1.505-6.89-5.419-9.394-9.73    c-2.369-4.077-7.218-3.985-10.534-1.358c-6.735,5.337-14.96,10.966-24.014,9.82c-3.37-0.427-6.592-1.885-8.88-4.427    c-2.401-2.667-3.657-6.059-6.618-8.262c-7.516-5.593-12.608,0.495-18.855,4.394c-5.112,3.19-18.751,6.455-18.558-3.698    c0.073-3.868-4.905-7.361-8.342-4.787c-6.438,4.821-12.985,10.117-20.705,12.714c-5.701,1.917-11.156,2.012-16.803,1.157    c-0.024-0.01-0.047-0.021-0.072-0.031c-15.201-6.047-31.663-6.142-47.361-2.216c-5.287-0.036-10.522-1.216-15.376-3.872    c-2.337-1.279-4.889-0.813-6.837,0.882c-3.813,3.319-8.372,6.913-13.528,7.692c-3.787,0.573-8.299-0.864-9.246-4.878    c-1.191-5.046-7.364-4.763-9.987-1.305c-7.298,9.621-21.452-2.703-13.24-11.729c2.811-3.089,1.046-8.999-3.626-8.754    c-8.115,0.426-8.042-9.296-3.571-13.649c5.254-5.117,12.953-6.265,19.946-6.807c16.376-1.268,32.815-1.983,49.221-2.749    c33.948-1.585,67.862-3.442,101.85-3.913c33.62-0.466,67.218,0.462,100.841,0.477c33.619,0.015,67.237,0.245,100.855,0.51    c17.908,0.141,35.815,0.118,53.721-0.125c4.266,0.06,8.532,0.088,12.798,0.093c8.117,0.01,16.239-0.054,24.355,0.047    c3.48,0.044,6.962,0.126,10.436,0.343c2.088,0.13,9.016-0.286,10.995,1.135c-0.442-0.192,0.29,1.616,0.345,2.003    c0.255,1.789,0.304,3.62,0.337,5.424C499.751,328.783,499.563,332.218,498.889,335.587z" fill="#000000"/>
	</g>
</g>
<g>
	<g>
		<path d="M351.965,58.591c-1.492-12.187-9.16-20.43-19.589-26.182c-8.261-4.557-17.141-8.831-26.022-7.444    c-8.72-0.089-17.161,3.108-24.104,8.429c-7.416,5.683-13.339,13.844-16.06,22.826c-3.012,9.946,0.262,21.861,4.522,31    c8.496,18.223,34.467,32.103,53.698,22.317C342.349,100.409,354.416,78.612,351.965,58.591z M327.111,99.209    c-7.848,6.295-15.945,7.618-25.597,4.889c-8.687-2.456-16.863-7.182-22.027-14.753c-4.704-6.897-7.914-16.682-7.951-25.081    c-0.038-8.427,5.239-16.873,11.085-22.625c6.243-6.143,14.356-9.958,23.144-10.324c2.49-0.104,5.21,0.091,7.961,0.562    c4.754,1.509,9.323,3.839,13.446,6.156c7.313,4.11,14.182,8.763,16.625,17.25C348.414,71.328,339.547,89.234,327.111,99.209z" fill="#000000"/>
	</g>
</g>
<g>
	<g>
		<path d="M211.432,31.882c-9.849-6.194-22.086-9.662-33.445-5.919c-3.379,1.113-6.835,2.753-10.104,4.808    c-31.898,14.534-31.646,74.775,5.693,84.839c10.854,2.926,23.513,1.466,33.392-3.941c9.008-4.931,15.179-14.801,18.937-24.055    C234.239,67.096,231.067,44.231,211.432,31.882z M221.588,77.879c-2.112,8.334-6.163,16.581-12.097,22.877    c-6.755,7.167-17.825,9.94-27.439,9.328c-20.319-1.295-31.782-19.001-31.848-38.206c-0.033-9.142,2.605-17.465,7.24-24.423    c5.765-4.914,11.057-9.736,18.209-13.028c8.76-4.032,17.345-3.206,26.024,0.585c7.358,3.214,14.188,8.338,18.074,15.495    C224.257,58.806,223.846,68.967,221.588,77.879z" fill="#000000"/>
	</g>
</g>
</svg>
