<?xml version="1.0" encoding="iso-8859-1"?>
<!-- Generator: Adobe Illustrator 18.0.0, SVG Export Plug-In . SVG Version: 6.00 Build 0)  -->
<!DOCTYPE svg PUBLIC "-//W3C//DTD SVG 1.1//EN" "http://www.w3.org/Graphics/SVG/1.1/DTD/svg11.dtd">
<svg version="1.1" id="Capa_1" xmlns="http://www.w3.org/2000/svg" xmlns:xlink="http://www.w3.org/1999/xlink" x="0px" y="0px"
	 viewBox="0 0 286.689 286.689" style="enable-background:new 0 0 286.689 286.689;" xml:space="preserve">
<g>
	<path fill="#000000" d="M286.574,109.832c-2.598-13.114-10.146-24.431-21.256-31.867c-11.11-7.437-24.452-10.1-37.563-7.503L46.281,106.406
		L8.389,89.961c-2.047-0.888-4.417-0.567-6.154,0.833c-1.737,1.4-2.554,3.648-2.12,5.837l13.33,67.3
		c0.566,2.857,3.073,4.835,5.879,4.835c0.387,0,0.779-0.038,1.173-0.115l55.226-10.939l1.708,8.623
		c0.393,1.981,1.756,3.632,3.628,4.393c0.728,0.295,1.494,0.441,2.257,0.441c1.199,0,2.39-0.359,3.406-1.06l29.671-20.452
		l165.462-32.773C285.104,116.239,287.217,113.083,286.574,109.832z M83.604,135.742l44.665-8.847l-40.842,28.152L83.604,135.742z
		 M158.96,120.314c2.343-1.615,3.229-4.653,2.122-7.274s-3.904-4.101-6.693-3.552l-79.003,15.648
		c-1.561,0.309-2.935,1.226-3.82,2.548c-0.885,1.322-1.209,2.942-0.899,4.503l2.724,13.753l-49.34,9.773l-9.94-50.189l29.111,12.635
		c1.119,0.486,2.36,0.618,3.555,0.382l183.311-36.309c9.967-1.975,20.11,0.051,28.557,5.704c6.76,4.524,11.785,10.939,14.535,18.432
		l-131.884,26.122L158.96,120.314z"/>
	<path fill="#000000" d="M276.562,205.196H10.126c-3.313,0-6,2.687-6,6s2.687,6,6,6h266.436c3.313,0,6-2.687,6-6S279.875,205.196,276.562,205.196z"
		/>
</g>
<g>
</g>
<g>
</g>
<g>
</g>
<g>
</g>
<g>
</g>
<g>
</g>
<g>
</g>
<g>
</g>
<g>
</g>
<g>
</g>
<g>
</g>
<g>
</g>
<g>
</g>
<g>
</g>
<g>
</g>
</svg>
