<?xml version="1.0" encoding="iso-8859-1"?>
<!-- Generator: Adobe Illustrator 19.0.0, SVG Export Plug-In . SVG Version: 6.00 Build 0)  -->
<svg version="1.1" id="Capa_1" xmlns="http://www.w3.org/2000/svg" xmlns:xlink="http://www.w3.org/1999/xlink" x="0px" y="0px"
	 viewBox="0 0 512.003 512.003" style="enable-background:new 0 0 512.003 512.003;" xml:space="preserve">
<g>
	<g>
		<path fill="#000000" d="M439.293,503.103l-5.891-30.994c-0.773-4.068-4.702-6.742-8.767-5.967c-4.068,0.774-6.74,4.698-5.967,8.768l4.199,22.095
			h-48.743v-45.86c0-4.141-3.357-7.499-7.499-7.499c-4.143,0-7.499,3.358-7.499,7.499v45.86H308.67v-97.309
			c5.044-4.058,8.639-9.649,10.213-15.746h52.206c28.223,0,34.574,23.095,35.02,24.871l7.914,41.648
			c0.773,4.068,4.698,6.741,8.768,5.967c4.068-0.773,6.74-4.698,5.967-8.767c-0.033-0.174-7.958-41.891-7.997-42.063
			c-2.854-12.678-16.905-36.653-49.671-36.653h-51.252v-11.917c24.397-9.738,42.958-31.032,48.888-57.093
			c23.349-4.109,31.327-30.908,13.222-45.079c7.658-3.674,12.959-11.504,12.959-20.549c0-19.302,1.207-25.302-4.761-33.013
			c0.193-1.048,0.13,5.759,0.13-100.933c0-22.674-7.781-44.894-21.909-62.568c-2.586-3.235-7.306-3.76-10.54-1.176
			c-3.235,2.587-3.762,7.305-1.176,10.54c12.186,15.244,18.627,33.642,18.627,53.204v92.068h-3.148c-3.964,0-162.929,0-167.397,0
			v-92.068c0-69.582,79.178-109.611,135.148-69.177c3.357,2.424,8.044,1.671,10.471-1.688c2.425-3.357,1.67-8.045-1.689-10.471
			c-65.984-47.665-158.928-0.335-158.928,81.336c0,106.578-0.063,99.884,0.13,100.933c-5.846,7.553-4.761,12.908-4.761,33.013
			c0,9.046,5.301,16.876,12.959,20.549c-18.111,14.176-10.122,40.971,13.222,45.079c5.931,26.061,24.493,47.356,48.891,57.093
			v11.913h-51.254c-32.764,0-46.815,23.976-49.669,36.653c-0.039,0.171-18.499,97.326-18.532,97.499
			c-0.877,4.616,2.666,8.899,7.367,8.899c11.911,0,270.9,0,283.836,0c2.234,0,4.352-0.996,5.776-2.718
			C439.127,507.564,439.71,505.297,439.293,503.103z M370.755,283.619c0-8.132,0-13.119,0-18.265
			C378.938,269.695,378.926,279.288,370.755,283.619z M209.257,283.619c-8.181-4.337-8.172-13.93,0-18.265
			C209.257,270.506,209.257,275.483,209.257,283.619z M207.881,242.095c-4.289,0-7.779-3.49-7.779-7.779v-19.1
			c0-4.29,3.49-7.78,7.779-7.78H372.13c4.289,0,7.779,3.49,7.779,7.78v19.1c0,4.289-3.49,7.779-7.779,7.779h-8.874
			C355.118,242.095,212.246,242.095,207.881,242.095z M224.255,282.023v-24.93h131.503v24.93c0,44.648-43.607,75.895-85.47,62.726
			C243.636,336.352,224.255,311.41,224.255,282.023z M293.673,497.004h-7.333v-0.001v-52.596c0-4.142-3.357-7.499-7.499-7.499
			s-7.499,3.357-7.499,7.499v52.596h-50.458v-45.86c0-4.141-3.357-7.499-7.499-7.499c-4.143,0-7.499,3.358-7.499,7.499v45.86
			h-48.738l16.757-88.18c0.183-0.712,1.766-6.477,6.415-12.288c6.681-8.352,16.305-12.586,28.602-12.586h52.208
			c1.53,5.927,5.037,11.582,10.211,15.745v18.723c0,4.142,3.357,7.499,7.499,7.499s7.499-3.357,7.499-7.499v-12.365
			c2.302,0.286,4.825,0.31,7.333-0.001V497.004z M304.84,376.45c0,8.17-6.757,14.831-14.835,14.831
			c-8.068,0-14.83-6.588-14.83-14.831v-15.047c9.52,1.775,19.798,1.841,29.665,0V376.45z"/>
	</g>
</g>
<g>
	<g>
		<path fill="#000000" d="M390.05,347.773h-27.294c-4.143,0-7.499,3.357-7.499,7.499c0,4.143,3.357,7.499,7.499,7.499h27.294
			c4.142,0,7.499-3.357,7.499-7.499C397.549,351.13,394.192,347.773,390.05,347.773z"/>
	</g>
</g>
<g>
	<g>
		<path fill="#000000" d="M218.154,347.773h-27.293c-4.142,0-7.499,3.357-7.499,7.499c0,4.143,3.357,7.499,7.499,7.499h27.293
			c4.143,0,7.499-3.357,7.499-7.499C225.653,351.13,222.296,347.773,218.154,347.773z"/>
	</g>
</g>
<g>
	<g>
		<path fill="#000000" d="M105.96,286.272V153.961c0-4.143-3.357-7.499-7.499-7.499c-4.142,0-7.499,3.357-7.499,7.499v132.313
			c-10.574,2.837-18.384,12.498-18.384,23.954v107.746v86.529c0,4.143,3.357,7.499,7.499,7.499h36.767
			c4.143,0,7.499-3.357,7.499-7.499c0-9.685,0-184.304,0-194.275C124.345,298.771,116.535,289.108,105.96,286.272z M87.576,497.003
			v-71.531h21.769v71.531H87.576z M109.346,410.475h-21.77V310.228c0-5.406,4.399-9.804,9.806-9.804h2.162
			c5.405,0,9.803,4.397,9.803,9.804V410.475z"/>
	</g>
</g>
<g>
</g>
<g>
</g>
<g>
</g>
<g>
</g>
<g>
</g>
<g>
</g>
<g>
</g>
<g>
</g>
<g>
</g>
<g>
</g>
<g>
</g>
<g>
</g>
<g>
</g>
<g>
</g>
<g>
</g>
</svg>
