<?xml version="1.0" encoding="iso-8859-1"?>
<!-- Generator: Adobe Illustrator 19.0.0, SVG Export Plug-In . SVG Version: 6.00 Build 0)  -->
<svg version="1.1" id="Layer_1" xmlns="http://www.w3.org/2000/svg" xmlns:xlink="http://www.w3.org/1999/xlink" x="0px" y="0px"
	 viewBox="0 0 512 512" style="enable-background:new 0 0 512 512;" xml:space="preserve">
<circle style="fill:#00A2FF;" cx="255.996" cy="255.996" r="255.996"/>
<path style="fill:#0084FF;" d="M255.999,512C397.385,512,512,397.385,512,256.001c0-23.729-3.242-46.698-9.284-68.505
	l-58.657-58.657c-1.154-4.72-5.42-8.254-10.481-8.254H420.57l-10.108-9.776c-1.154-4.72-5.42-8.254-10.481-8.254h-20.717
	l-36.829-36.38c-8.604-10.942-21.952-17.978-36.951-17.978c-25.953,0-46.993,21.04-46.993,46.993
	c0,14.999,7.036,28.347,17.977,36.95l72.03,76.139h-42.345l-93.822-92.088c-1.318-4.795-5.716-8.349-10.914-8.349h-61.769
	c-6.231,0-11.328,5.097-11.328,11.328c0,2.914,1.124,5.571,2.95,7.584h-26.865c-6.231,0-11.328,5.097-11.328,11.328
	c0,5.198,3.554,9.596,8.349,10.915l42.903,44.981l-1.464,1.368h3.265c0.316,0.194,0.642,0.372,0.977,0.535v12.398H95.932
	l-12.727-12.933l-12.431-11.619l-12.431,11.619h4.242v12.933H4.459c-0.018,0.093-0.036,0.186-0.053,0.279
	c-0.312,1.67-0.607,3.347-0.888,5.027c-0.053,0.32-0.107,0.638-0.159,0.959c-0.264,1.622-0.513,3.247-0.746,4.88
	c-0.057,0.403-0.114,0.807-0.169,1.211c-0.216,1.562-0.42,3.128-0.608,4.7c-0.06,0.496-0.114,0.995-0.17,1.492
	c-0.17,1.496-0.331,2.996-0.476,4.5c-0.056,0.593-0.106,1.189-0.159,1.784c-0.127,1.429-0.25,2.86-0.353,4.296
	c-0.049,0.688-0.087,1.377-0.131,2.067c-0.087,1.364-0.174,2.727-0.24,4.096c-0.037,0.77-0.057,1.544-0.088,2.315
	c-0.051,1.309-0.107,2.617-0.139,3.932c-0.018,0.738-0.017,1.48-0.028,2.218c-0.02,1.321-0.047,2.64-0.047,3.965
	c0,0.311,0.007,0.622,0.008,0.933c0.005,1.568,0.026,3.135,0.06,4.697c0.016,0.719,0.036,1.437,0.057,2.155
	c0.041,1.356,0.093,2.709,0.155,4.06c0.026,0.585,0.047,1.172,0.077,1.756c0.094,1.789,0.209,3.572,0.339,5.351
	c0.05,0.685,0.108,1.368,0.163,2.051c0.104,1.285,0.218,2.567,0.342,3.846c0.064,0.662,0.124,1.327,0.193,1.988
	c0.184,1.764,0.383,3.521,0.603,5.273c0.076,0.607,0.162,1.212,0.241,1.818c0.171,1.291,0.351,2.581,0.541,3.866
	c0.102,0.692,0.205,1.382,0.312,2.072c0.255,1.631,0.522,3.258,0.808,4.879c0.097,0.55,0.201,1.096,0.301,1.645
	c0.258,1.406,0.526,2.81,0.807,4.208c0.138,0.686,0.278,1.371,0.422,2.055c0.277,1.322,0.564,2.64,0.861,3.955
	c0.115,0.511,0.225,1.024,0.343,1.534c0.394,1.695,0.809,3.382,1.236,5.065c0.167,0.657,0.341,1.312,0.512,1.969
	c0.319,1.215,0.648,2.427,0.983,3.635c0.17,0.611,0.336,1.224,0.511,1.833c0.474,1.654,0.964,3.302,1.47,4.941
	c0.186,0.604,0.381,1.205,0.572,1.808c0.374,1.181,0.756,2.358,1.146,3.532c0.218,0.654,0.436,1.309,0.658,1.962
	c0.552,1.613,1.115,3.222,1.698,4.822c0.184,0.506,0.378,1.006,0.565,1.511c0.45,1.212,0.909,2.42,1.377,3.624
	c0.261,0.671,0.525,1.342,0.792,2.009c0.481,1.203,0.971,2.401,1.469,3.595c0.267,0.643,0.535,1.285,0.808,1.925
	c0.59,1.382,1.192,2.759,1.806,4.128c0.305,0.681,0.615,1.359,0.927,2.039c0.47,1.026,0.948,2.047,1.431,3.065
	c0.304,0.641,0.604,1.283,0.913,1.921c0.705,1.454,1.425,2.901,2.157,4.34c0.356,0.7,0.721,1.395,1.082,2.092
	c0.469,0.902,0.944,1.8,1.422,2.696c0.391,0.729,0.781,1.46,1.179,2.185c0.648,1.182,1.306,2.357,1.973,3.529
	c0.526,0.925,1.061,1.843,1.599,2.761c0.456,0.777,0.912,1.554,1.375,2.325c0.485,0.809,0.973,1.615,1.467,2.419
	c0.417,0.679,0.842,1.353,1.265,2.028c0.497,0.791,0.992,1.583,1.494,2.372l0.001,0.008C86.063,465.091,165.552,512,255.999,512z"/>
<circle style="fill:#FFD000;" cx="305.482" cy="95.189" r="46.993"/>
<path style="fill:#E7AF00;" d="M305.483,48.199v93.985c25.953,0,46.993-21.04,46.993-46.993
	C352.476,69.238,331.436,48.199,305.483,48.199z"/>
<g>
	<path style="fill:#FFFFFF;" d="M104.405,126.756h26.863c-1.824-2.012-2.95-4.67-2.95-7.584c0-6.231,5.098-11.328,11.328-11.328
		h61.769c6.231,0,11.328,5.097,11.328,11.328c0,6.231-5.097,11.328-11.328,11.328h-26.863c1.824,2.012,2.949,4.67,2.949,7.584l0,0
		c0,6.23-5.097,11.328-11.328,11.328h-61.768c-6.231,0-11.328-5.098-11.328-11.328l0,0
		C93.077,131.854,98.174,126.756,104.405,126.756z"/>
	<path style="fill:#FFFFFF;" d="M433.577,120.586h-25.61c1.74-1.919,2.812-4.452,2.812-7.231c0-5.94-4.86-10.799-10.8-10.799
		h-58.889c-5.94,0-10.799,4.86-10.799,10.799s4.86,10.799,10.799,10.799h25.61c-1.74,1.918-2.812,4.452-2.812,7.231l0,0
		c0,5.94,4.86,10.8,10.8,10.8h58.889c5.939,0,10.799-4.86,10.799-10.8l0,0C444.376,125.446,439.516,120.586,433.577,120.586z"/>
</g>
<g>
	<polygon style="fill:#866746;" points="83.204,195.348 70.773,183.729 58.343,195.348 62.585,195.348 62.585,208.987
		78.962,208.987 78.962,195.348 	"/>
	<polygon style="fill:#866746;" points="167.727,195.348 155.296,183.729 142.865,195.348 147.107,195.348 147.107,208.987
		163.484,208.987 163.484,195.348 	"/>
	<polygon style="fill:#866746;" points="268.427,195.348 255.996,183.729 243.566,195.348 247.808,195.348 247.808,208.987
		264.185,208.987 264.185,195.348 	"/>
</g>
<path style="fill:#DBC9B9;" d="M511.996,256.001c0,49.287-13.928,95.325-38.065,134.372c-0.805,1.306-1.63,2.602-2.455,3.897h-5.005
	c0,0,0-81.125,0-88.543c0-7.408-1.463-23.353-7.074-31.158c-5.611-7.805-18.171-22.423-18.171-22.423s-12.549,14.618-18.16,22.423
	c-5.611,7.805-7.074,23.75-7.074,31.158c0,7.419,0,88.543,0,88.543H381.95c0,0,0-81.125,0-88.543c0-7.408-1.473-23.353-7.084-31.158
	c-5.611-7.805-18.16-22.423-18.16-22.423s-12.549,14.618-18.16,22.423c-5.611,7.805-7.084,23.75-7.084,31.158
	c0,7.419,0,88.543,0,88.543H296.28c0,0,0-81.125,0-88.543c0-7.408-2.341-23.353-11.295-31.158
	C276.03,266.763,256,252.145,256,252.145s-20.03,14.618-28.985,22.423c-8.955,7.805-11.295,23.75-11.295,31.158
	c0,7.419,0,88.543,0,88.543h-35.181c0,0,0-81.125,0-88.543c0-7.408-1.473-23.353-7.084-31.158
	c-5.611-7.805-18.16-22.423-18.16-22.423s-12.549,14.618-18.16,22.423c-5.611,7.805-7.084,23.75-7.084,31.158
	c0,7.419,0,88.543,0,88.543H96.007c0,0,0-81.125,0-88.543c0-7.408-1.463-23.353-7.074-31.158
	c-5.611-7.805-18.16-22.423-18.16-22.423s-12.559,14.618-18.171,22.423c-5.611,7.805-7.074,23.75-7.074,31.158
	c0,7.419,0,88.543,0,88.543h-5.005c-0.825-1.296-1.651-2.591-2.455-3.897C13.931,351.325,0.003,305.288,0.003,256.001
	c0-16.311,1.536-32.256,4.451-47.72h503.09C510.46,223.744,511.996,239.69,511.996,256.001z"/>
<path style="fill:#C8AD91;" d="M507.545,208.281H255.999v43.864c0,0,20.03,14.618,28.985,22.423
	c8.955,7.805,11.295,23.75,11.295,31.158c0,7.419,0,88.543,0,88.543h35.181c0,0,0-81.125,0-88.543
	c0-7.408,1.473-23.353,7.084-31.158c5.611-7.805,18.16-22.423,18.16-22.423s12.549,14.618,18.16,22.423
	c5.611,7.805,7.084,23.75,7.084,31.158c0,7.419,0,88.543,0,88.543h34.042c0,0,0-81.125,0-88.543c0-7.408,1.463-23.353,7.074-31.158
	c5.611-7.805,18.16-22.423,18.16-22.423s12.559,14.618,18.171,22.423c5.611,7.805,7.074,23.75,7.074,31.158
	c0,7.419,0,88.543,0,88.543h5.005c0.825-1.296,1.651-2.591,2.455-3.897c24.137-39.047,38.065-85.085,38.065-134.372
	C511.996,239.69,510.46,223.744,507.545,208.281z"/>
<path style="fill:#B38A65;" d="M4.459,208.284c-0.857,4.545-1.599,9.131-2.212,13.758h507.508
	c-0.613-4.627-1.355-9.213-2.212-13.758H4.459z"/>
<path style="fill:#866746;" d="M507.541,208.284h-58.146v-12.936h4.242l-12.431-11.619l-12.43,11.619h4.242v12.936h-68.145v-12.936
	h4.242l-12.431-11.619l-12.43,11.619h4.242v12.936H256v13.758h253.754C509.14,217.415,508.399,212.829,507.541,208.284z"/>
<path style="fill:#B38A65;" d="M473.931,367.281v-62.933c0-8.693-1.902-25.798-9.174-34.941
	c-7.262-9.153-23.531-27.857-23.531-27.857s-16.258,18.703-23.52,27.857c-7.272,9.143-9.174,26.247-9.174,34.941
	c0,5.367,0,38.444,0,62.933H389.4c0-24.488,0-57.567,0-62.933c0-8.693-1.902-25.798-9.164-34.941
	c-7.272-9.153-23.531-27.857-23.531-27.857s-16.258,18.703-23.531,27.857c-7.262,9.143-9.164,26.247-9.164,34.941
	c0,5.367,0,38.444,0,62.933h-19.027c0-24.488,0-57.567,0-62.933c0-8.693-2.853-27.376-13.74-36.519
	C280.356,258.686,256,241.55,256,241.55s-24.356,17.136-35.244,26.279s-13.74,27.825-13.74,36.519c0,5.367,0,38.444,0,62.933
	h-19.027c0-24.488,0-57.567,0-62.933c0-8.693-1.902-25.798-9.164-34.941c-7.272-9.153-23.531-27.857-23.531-27.857
	s-16.258,18.703-23.531,27.857c-7.262,9.143-9.164,26.247-9.164,34.941c0,5.367,0,38.444,0,62.933h-19.132
	c0-24.488,0-57.567,0-62.933c0-8.693-1.902-25.798-9.174-34.941c-7.262-9.153-23.52-27.857-23.52-27.857
	s-16.269,18.703-23.531,27.857c-7.272,9.143-9.174,26.247-9.174,34.941v62.933H25.394c3.835,7.931,8.066,15.642,12.674,23.092
	c0.805,1.306,1.62,2.602,2.455,3.897h5.005h4.984v-26.989h-4.984v-61.554c0-7.408,1.463-23.353,7.074-31.158
	c5.611-7.805,18.171-22.423,18.171-22.423s12.549,14.618,18.16,22.423c5.611,7.805,7.074,23.75,7.074,31.158
	c0,4.579,0,37.224,0,61.554h-3.628v26.989h3.628h7.46h19.132h7.45h3.85v-26.989h-3.85c0-24.33,0-56.975,0-61.554
	c0-7.408,1.473-23.353,7.084-31.158c5.611-7.805,18.16-22.423,18.16-22.423s12.549,14.618,18.16,22.423
	c5.611,7.805,7.084,23.75,7.084,31.158c0,4.579,0,37.224,0,61.554h-3.85v26.989h3.85h7.45h19.027h8.704h2.489v-26.989h-2.489
	c0-24.33,0-56.975,0-61.554c0-7.408,2.341-23.353,11.295-31.158c8.955-7.805,28.985-22.423,28.985-22.423
	s20.03,14.618,28.985,22.423c8.955,7.805,11.295,23.75,11.295,31.158c0,4.579,0,37.224,0,61.554h-2.489v26.989h2.489h8.704h19.027
	h7.45h3.85v-26.989h-3.85c0-24.33,0-56.975,0-61.554c0-7.408,1.473-23.353,7.084-31.158c5.611-7.805,18.16-22.423,18.16-22.423
	s12.549,14.618,18.16,22.423c5.611,7.805,7.084,23.75,7.084,31.158c0,4.579,0,37.224,0,61.554h-3.85v26.989h3.85h7.45h19.132h7.46
	h3.628v-26.989h-3.628c0-24.33,0-56.975,0-61.554c0-7.408,1.463-23.353,7.074-31.158c5.611-7.805,18.16-22.423,18.16-22.423
	s12.559,14.618,18.171,22.423c5.611,7.805,7.074,23.75,7.074,31.158v61.554h-4.984v26.989h4.984h5.005
	c0.564-0.878,1.128-1.755,1.682-2.644c0.251-0.418,0.512-0.836,0.773-1.254c2.341-3.782,4.577-7.628,6.719-11.536
	c0.397-0.731,0.805-1.463,1.191-2.205c0.502-0.93,0.993-1.849,1.473-2.79c0.533-1.024,1.055-2.048,1.578-3.082
	c0.575-1.149,1.149-2.309,1.714-3.479H473.931z"/>
<path style="fill:#866746;" d="M473.931,304.347c0-8.693-1.902-25.798-9.174-34.941c-7.262-9.153-23.531-27.857-23.531-27.857
	s-16.258,18.703-23.52,27.857c-7.272,9.143-9.174,26.247-9.174,34.941c0,5.367,0,38.444,0,62.933H389.4c0-24.488,0-57.567,0-62.933
	c0-8.693-1.902-25.798-9.164-34.941c-7.272-9.153-23.531-27.857-23.531-27.857s-16.258,18.703-23.531,27.857
	c-7.262,9.143-9.164,26.247-9.164,34.941c0,5.367,0,38.444,0,62.933h-19.027c0-24.488,0-57.567,0-62.933
	c0-8.693-2.853-27.376-13.74-36.519C280.356,258.686,256,241.55,256,241.55v10.595c0,0,20.03,14.618,28.985,22.423
	c8.955,7.805,11.295,23.75,11.295,31.158c0,4.579,0,37.224,0,61.554h-2.489v26.989h2.489h8.704h19.027h7.45h3.85v-26.989h-3.85
	c0-24.33,0-56.975,0-61.554c0-7.408,1.473-23.353,7.084-31.158c5.611-7.805,18.16-22.423,18.16-22.423s12.549,14.618,18.16,22.423
	c5.611,7.805,7.084,23.75,7.084,31.158c0,4.579,0,37.224,0,61.554h-3.85v26.989h3.85h7.45h19.132h7.46h3.628v-26.989h-3.628
	c0-24.33,0-56.975,0-61.554c0-7.408,1.463-23.353,7.074-31.158c5.611-7.805,18.16-22.423,18.16-22.423s12.559,14.618,18.171,22.423
	c5.611,7.805,7.074,23.75,7.074,31.158v61.554h-4.984v26.989h4.984h5.005c0.564-0.878,1.128-1.755,1.682-2.644
	c0.251-0.418,0.512-0.836,0.773-1.254c2.341-3.782,4.577-7.628,6.719-11.536c0.397-0.731,0.805-1.463,1.191-2.205
	c0.502-0.93,0.993-1.849,1.473-2.79c0.533-1.024,1.055-2.048,1.578-3.082c0.575-1.149,1.149-2.309,1.714-3.479h-12.674
	L473.931,304.347L473.931,304.347z"/>
<path style="fill:#00B764;" d="M255.999,512c92.101,0,172.83-48.647,217.928-121.637H38.071C83.17,463.353,163.898,512,255.999,512z
	"/>
<g>
	<rect x="98.94" y="422.216" style="fill:#008849;" width="68.262" height="12.809"/>
	<rect x="194.62" y="444.775" style="fill:#008849;" width="49.611" height="12.808"/>
	<rect x="186.344" y="406.125" style="fill:#008849;" width="49.611" height="12.808"/>
	<rect x="167.213" y="472.475" style="fill:#008849;" width="49.611" height="12.808"/>
</g>
<path style="fill:#00884A;" d="M473.931,390.362c-0.888,1.431-1.776,2.842-2.696,4.253c-0.408,0.658-0.836,1.306-1.275,1.954
	c-0.439,0.679-0.888,1.348-1.337,2.017c-0.543,0.805-1.087,1.609-1.64,2.414c-0.637,0.919-1.275,1.839-1.923,2.759
	c-1.139,1.588-2.288,3.176-3.448,4.744c-0.136,0.188-0.282,0.376-0.418,0.564c-0.554,0.731-1.108,1.463-1.661,2.194
	C412.774,472.49,339.005,511.997,256,511.997V390.362L473.931,390.362L473.931,390.362z"/>
<g>
	<rect x="347.622" y="422.216" style="fill:#007539;" width="68.262" height="12.809"/>
	<rect x="294.249" y="464.2" style="fill:#007539;" width="49.611" height="12.808"/>
	<rect x="271.993" y="436.991" style="fill:#007539;" width="49.611" height="12.808"/>
	<rect x="302.995" y="399.72" style="fill:#007539;" width="49.611" height="12.808"/>
</g>
</svg>
