<?xml version="1.0" encoding="iso-8859-1"?>
<!-- Generator: Adobe Illustrator 16.0.0, SVG Export Plug-In . SVG Version: 6.00 Build 0)  -->
<!DOCTYPE svg PUBLIC "-//W3C//DTD SVG 1.1//EN" "http://www.w3.org/Graphics/SVG/1.1/DTD/svg11.dtd">
<svg version="1.1" id="Capa_1" xmlns="http://www.w3.org/2000/svg" xmlns:xlink="http://www.w3.org/1999/xlink" x="0px" y="0px"
	 width="802.125px" height="802.125px" viewBox="0 0 802.125 802.125" style="enable-background:new 0 0 802.125 802.125;"
	 xml:space="preserve">
<g>
	<g>
		<g>
			<g>
				<path d="M321.636,324.75h-58.404v-36.913c3.813-2.021,7.45-4.326,10.883-6.893c2.871-2.144,5.577-4.487,8.146-6.977
					c10.738-10.411,18.702-23.669,22.62-38.58c1.518-5.782,2.433-11.808,2.67-18.009c0.041-1.064,0.068-2.132,0.068-3.207v-58.593
					H140.974h-0.001v58.593c0,7.333,0.959,14.441,2.738,21.216c5.976,22.738,21.312,41.678,41.649,52.449v36.913h-58.403h-0.001
					c-21.934,0-41.791,8.89-56.164,23.265s-23.263,34.231-23.263,56.164l0,0h353.535C401.062,360.313,365.503,324.75,321.636,324.75
					z"/>
				<path d="M350.074,128.406C347.48,56.984,296.453,0,224.295,0C152.138,0,101.109,56.984,98.517,128.406
					c-8.582,1.841-15.019,9.462-15.019,18.594v39.433c0,9.091,6.381,16.682,14.907,18.565v5.787h0.004
					c0,0.022-0.004,0.044-0.004,0.066c0,9.217,7.473,16.689,16.688,16.689c9.218,0,16.69-7.473,16.69-16.689
					c0-0.127-0.016-0.25-0.019-0.377h0.017v-65.055h92.514h92.513v65.055h0.017c-0.002,0.127-0.018,0.25-0.018,0.377
					c0,9.217,7.472,16.689,16.688,16.689c9.219,0,16.69-7.473,16.69-16.689c0-0.022-0.002-0.044-0.002-0.066h0.002v-5.787
					c8.525-1.883,14.907-9.474,14.907-18.565V147C365.093,137.869,358.656,130.247,350.074,128.406z"/>
			</g>
			<g>
				<path d="M675.17,438.521h-58.404v-36.914c3.812-2.019,7.45-4.327,10.883-6.892c2.871-2.145,5.577-4.489,8.146-6.978
					c10.737-10.411,18.702-23.669,22.62-38.579c1.519-5.783,2.434-11.81,2.671-18.01c0.041-1.064,0.066-2.132,0.066-3.206v-58.594
					H494.507l0,0v58.594c0,7.332,0.959,14.44,2.737,21.216c5.977,22.737,21.312,41.678,41.648,52.448v36.914h-58.403l0,0
					c-21.934,0-41.79,8.889-56.164,23.264c-14.373,14.375-23.263,34.232-23.263,56.166l0,0h353.534
					C754.597,474.084,719.038,438.521,675.17,438.521z"/>
				<path d="M703.608,242.176c-2.594-71.421-53.621-128.406-125.777-128.406c-72.158,0-123.187,56.985-125.779,128.406
					c-8.582,1.842-15.02,9.463-15.02,18.594v39.434c0,9.091,6.381,16.682,14.906,18.564v5.787h0.003
					c0,0.023-0.003,0.044-0.003,0.065c0,9.217,7.473,16.69,16.688,16.69c9.218,0,16.689-7.473,16.689-16.69
					c0-0.126-0.016-0.25-0.019-0.377h0.018v-65.054h92.514h92.515v65.054h0.017c-0.003,0.128-0.019,0.251-0.019,0.377
					c0,9.217,7.473,16.69,16.688,16.69c9.218,0,16.69-7.473,16.69-16.69c0-0.021-0.003-0.042-0.003-0.065h0.003v-5.787
					c8.524-1.882,14.906-9.473,14.906-18.564V260.77C718.627,251.639,712.19,244.018,703.608,242.176z"/>
			</g>
		</g>
		<path d="M764.902,661.697L664.19,624.83c0.023-0.686,0.052-1.375,0.052-2.07c0-31.061-25.18-56.236-56.237-56.236H277.68
			c-26.784,0-49.179,18.73-54.84,43.803h-34.548c-18.963,0-34.336,15.373-34.336,34.336h-1.774h-24.273h-18.943H91.832
			c-0.013,0-0.023-0.002-0.035-0.002H71.083v-12.727c0-6.867-5.565-12.436-12.432-12.436c-6.866,0-12.431,5.566-12.431,12.436
			v12.725H34.979c-9.482,0-17.169,7.688-17.169,17.17s7.687,17.17,17.169,17.17h40.836h15.983h17.168h18.942h24.273h8.878h27.232
			h15.983h73.405h14.798h111.396v85.635c0,20.707,16.783,37.492,37.491,37.492s37.492-16.785,37.492-37.492v-85.635h55.978
			c-0.521,2.287-0.82,4.66-0.82,7.105c0,17.654,14.312,31.967,31.967,31.967c6.573,0,12.68-1.988,17.759-5.391v20.188
			c0,12.752,10.337,23.088,23.087,23.088c12.752,0,23.089-10.336,23.089-23.088v-47.469l98.305,55.652
			c16.76,7.748,45.255-18.219,53.001-34.977C788.971,689.314,781.663,669.447,764.902,661.697z M583.74,698.82
			c-3.967,5.531-10.435,9.146-17.759,9.146c-12.074,0-21.861-9.789-21.861-21.863c0-2.49,0.437-4.875,1.202-7.104h18.587v11.119
			c0,2.18,1.769,3.947,3.946,3.947c2.183,0,3.95-1.768,3.95-3.947V679h11.935V698.82L583.74,698.82z"/>
	</g>
</g>
</svg>
