<?xml version="1.0" encoding="iso-8859-1"?>
<!-- Generator: Adobe Illustrator 17.1.0, SVG Export Plug-In . SVG Version: 6.00 Build 0)  -->
<!DOCTYPE svg PUBLIC "-//W3C//DTD SVG 1.1//EN" "http://www.w3.org/Graphics/SVG/1.1/DTD/svg11.dtd">
<svg version="1.1" id="Capa_1" xmlns="http://www.w3.org/2000/svg" xmlns:xlink="http://www.w3.org/1999/xlink" x="0px" y="0px"
	 viewBox="0 0 511 511" style="enable-background:new 0 0 511 511;" xml:space="preserve">
<g>
	<path d="M502.99,271.31c-0.004-0.149-0.01-0.298-0.023-0.447c-0.009-0.105-0.021-0.208-0.034-0.312
		c-0.018-0.138-0.038-0.276-0.063-0.413c-0.021-0.113-0.045-0.225-0.071-0.336c-0.029-0.123-0.059-0.245-0.094-0.367
		c-0.035-0.124-0.075-0.245-0.116-0.366c-0.037-0.106-0.075-0.212-0.116-0.317c-0.052-0.133-0.109-0.262-0.169-0.391
		c-0.043-0.092-0.086-0.184-0.132-0.275c-0.07-0.136-0.145-0.268-0.222-0.399c-0.032-0.053-0.057-0.109-0.09-0.162l-28.202-45.124
		c3.336-4.058,5.343-9.249,5.343-14.901c0-10.336-6.71-19.128-16-22.266V47h0.5c12.958,0,23.5-10.542,23.5-23.5v-16
		c0-4.142-3.358-7.5-7.5-7.5h-60.977c-8.338,0-16.711,1.923-24.213,5.561L160.254,119.042C155.987,114.7,150.054,112,143.5,112
		h-3.779c-10.568,0-19.891,7.121-22.672,17.317L108.681,160H87.5c-4.142,0-7.5,3.358-7.5,7.5s3.358,7.5,7.5,7.5h17.09l-6.818,25
		H31.5C18.542,200,8,210.542,8,223.5v56v32c0,4.142,3.358,7.5,7.5,7.5H104v17H55.5C42.542,336,32,346.542,32,359.5v32v70.229
		l-7.208,14.417C24.271,477.188,24,478.335,24,479.5V496h-0.5c-4.142,0-7.5,3.358-7.5,7.5s3.358,7.5,7.5,7.5h56
		c4.142,0,7.5-3.358,7.5-7.5s-3.358-7.5-7.5-7.5H79v-97h121v97h-0.5c-4.142,0-7.5,3.358-7.5,7.5s3.358,7.5,7.5,7.5h56
		c4.142,0,7.5-3.358,7.5-7.5s-3.358-7.5-7.5-7.5H255v-16.5c0-1.165-0.271-2.313-0.792-3.354L247,461.729V391.5v-32
		c0-12.958-10.542-23.5-23.5-23.5H175v-17h16.5c4.142,0,7.5-3.358,7.5-7.5v-32c0-2.812-1.55-5.26-3.841-6.544l63.932-34.872
		c0.629-0.343,1.206-0.774,1.712-1.281L448,49.606v135.628c-9.29,3.138-16,11.93-16,22.266c0,5.652,2.006,10.843,5.343,14.901
		l-28.202,45.124c-0.033,0.053-0.058,0.108-0.09,0.162c-0.078,0.131-0.153,0.263-0.222,0.399c-0.047,0.091-0.09,0.183-0.132,0.275
		c-0.06,0.129-0.116,0.259-0.169,0.391c-0.042,0.105-0.08,0.211-0.116,0.317c-0.041,0.121-0.081,0.242-0.116,0.366
		c-0.035,0.122-0.066,0.244-0.094,0.367c-0.026,0.111-0.05,0.223-0.071,0.336c-0.025,0.138-0.046,0.275-0.063,0.413
		c-0.013,0.103-0.026,0.207-0.034,0.312c-0.013,0.149-0.019,0.298-0.023,0.447c-0.002,0.064-0.01,0.126-0.01,0.19v48
		c0,4.142,3.358,7.5,7.5,7.5h80c4.142,0,7.5-3.358,7.5-7.5v-48C503,271.436,502.992,271.374,502.99,271.31z M455.5,231
		c1.873,0,3.694-0.227,5.441-0.643L481.968,264h-52.936l21.027-33.643C451.806,230.773,453.627,231,455.5,231z M400.854,19.058
		c3.812-1.848,7.935-3.075,12.14-3.658L268.394,160H167v-24.5c0-1.005-0.071-1.993-0.194-2.965L400.854,19.058z M167,175h86.394
		L167,261.394V175z M131.521,133.263c1.006-3.688,4.378-6.263,8.2-6.263h3.779c4.687,0,8.5,3.813,8.5,8.5V200h-38.681
		L131.521,133.263z M31.5,215H152v57H23v-48.5C23,218.813,26.813,215,31.5,215z M64,496H39v-14.729l7.208-14.417
		C46.729,465.813,47,464.665,47,463.5V399h17V496z M215,496v-97h17v64.5c0,1.165,0.271,2.313,0.792,3.354L240,481.271V496H215z
		 M232,359.5V384H47v-24.5c0-4.687,3.813-8.5,8.5-8.5h168C228.187,351,232,354.813,232,359.5z M160,336h-41v-17h41V336z M184,304H23
		v-17h144.485c0.007,0,0.015,0.001,0.022,0.001c0.008,0,0.016-0.001,0.024-0.001H184V304z M442.197,34.197L250.96,225.433
		l-58.931,32.144l84.773-84.773c0.001-0.001,0.002-0.002,0.003-0.003L434.606,15H472v8.5c0,4.687-3.813,8.5-8.5,8.5h-16
		C445.511,32,443.603,32.79,442.197,34.197z M455.5,199c4.687,0,8.5,3.813,8.5,8.5s-3.813,8.5-8.5,8.5s-8.5-3.813-8.5-8.5
		S450.813,199,455.5,199z M488,312h-65v-33h65V312z"/>
	<path d="M47.5,247h16c4.142,0,7.5-3.358,7.5-7.5s-3.358-7.5-7.5-7.5h-16c-4.142,0-7.5,3.358-7.5,7.5S43.358,247,47.5,247z"/>
	<path d="M111.5,247h16c4.142,0,7.5-3.358,7.5-7.5s-3.358-7.5-7.5-7.5h-16c-4.142,0-7.5,3.358-7.5,7.5S107.358,247,111.5,247z"/>
	<path d="M87.5,247c1.97,0,3.91-0.8,5.3-2.2c1.4-1.39,2.2-3.33,2.2-5.3c0-1.98-0.8-3.91-2.2-5.3c-1.39-1.4-3.33-2.2-5.3-2.2
		c-1.97,0-3.91,0.8-5.3,2.2c-1.4,1.39-2.2,3.32-2.2,5.3c0,1.97,0.8,3.91,2.2,5.3C83.59,246.2,85.53,247,87.5,247z"/>
</g>
</svg>
