<?xml version="1.0" encoding="iso-8859-1"?>
<!-- Generator: Adobe Illustrator 17.1.0, SVG Export Plug-In . SVG Version: 6.00 Build 0)  -->
<!DOCTYPE svg PUBLIC "-//W3C//DTD SVG 1.1//EN" "http://www.w3.org/Graphics/SVG/1.1/DTD/svg11.dtd">
<svg xmlns="http://www.w3.org/2000/svg" xmlns:xlink="http://www.w3.org/1999/xlink" version="1.1" id="Capa_1" x="0px" y="0px" viewBox="0 0 299.5 299.5" style="enable-background:new 0 0 299.5 299.5;" xml:space="preserve" width="512px" height="512px">
<g>
	<path d="M248.299,175.75c-0.235-6-2.08-12.132-5.125-17H290v-16h-75.667h-15.515c-1.113-9.746-9.4-17-19.439-17H157v-59   c0-4.418-3.582-8-8-8s-8,3.582-8,8v59h-41v17H50v33H248.299z" fill="#314e70"/>
	<path d="M0,191.75v27c0,12.15,10.35,22,22.5,22h244.662c8.87,0,16.514-5.082,19.995-12.643c0.568-1.233,6.211-18.357,12.343-36.357   H0z" fill="#314e70"/>
</g>
<g>
</g>
<g>
</g>
<g>
</g>
<g>
</g>
<g>
</g>
<g>
</g>
<g>
</g>
<g>
</g>
<g>
</g>
<g>
</g>
<g>
</g>
<g>
</g>
<g>
</g>
<g>
</g>
<g>
</g>
</svg>
