<?xml version="1.0" encoding="iso-8859-1"?>
<!-- Generator: Adobe Illustrator 19.0.0, SVG Export Plug-In . SVG Version: 6.00 Build 0)  -->
<svg version="1.1" id="Capa_1" xmlns="http://www.w3.org/2000/svg" xmlns:xlink="http://www.w3.org/1999/xlink" x="0px" y="0px"
	 viewBox="0 0 511.984 511.984" style="enable-background:new 0 0 511.984 511.984;" xml:space="preserve">
<polygon style="fill:#CCD1D9;" points="303.185,158.389 255.429,211.99 207.192,158.468 215.192,147.992 295.185,147.992 "/>
<polygon style="fill:#DA4453;" points="259.511,175.991 251.512,175.991 248.484,204.279 255.429,211.99 262.553,203.997 "/>
<polygon style="fill:#E6E9ED;" points="255.35,157.108 215.192,129.359 215.192,147.992 239.191,171.991 255.35,163.991
	271.686,171.866 295.685,147.867 295.685,129.234 "/>
<polygon style="fill:#ED5564;" points="283.561,355.348 269.561,368.949 272.843,388.222 255.561,379.113 238.281,388.222
	241.562,368.949 227.562,355.348 246.922,352.473 255.561,334.951 264.202,352.473 "/>
<g style="opacity:0.2;">
	<polygon style="fill:#FFFFFF;" points="247.07,383.59 249.562,368.949 235.562,355.348 246.922,352.473 227.562,355.348
		241.562,368.949 238.281,388.222 	"/>
</g>
<g style="opacity:0.2;">
	<polygon points="264.053,383.59 261.561,368.949 275.561,355.348 264.202,352.473 283.561,355.348 269.561,368.949
		272.843,388.222 	"/>
</g>
<path style="fill:#FFCE54;" d="M255.561,334.951l-8.64,17.522l-19.359,2.875l14,13.601l-3.281,19.273l17.28-9.109l17.281,9.109
	l-3.281-19.273l14-13.601l-19.359-2.875L255.561,334.951z M255.561,315.99c26.477,0,47.999,21.516,47.999,47.998
	c0,26.484-21.522,47.999-47.999,47.999c-26.562,0-47.998-21.515-47.998-47.999C207.563,337.506,229,315.99,255.561,315.99z"/>
<g style="opacity:0.5;">
	<path style="fill:#FFFFFF;" d="M215.563,363.988c0-25.131,19.319-45.756,43.99-47.795c-1.32-0.109-2.641-0.203-3.992-0.203
		c-26.562,0-47.998,21.516-47.998,47.998c0,26.484,21.437,47.999,47.998,47.999c1.352,0,2.672-0.094,3.992-0.203
		C234.883,409.745,215.563,389.121,215.563,363.988z"/>
</g>
<g style="opacity:0.2;">
	<path d="M295.951,363.988c0,25.133-19.319,45.757-43.99,47.796c1.319,0.109,2.64,0.203,3.991,0.203
		c26.562,0,47.999-21.515,47.999-47.999c0-26.482-21.437-47.998-47.999-47.998c-1.352,0-2.672,0.094-3.991,0.203
		C276.632,318.232,295.951,338.857,295.951,363.988z"/>
</g>
<polygon style="fill:#965353;" points="407.557,227.989 376.199,299.99 359.558,299.99 351.559,299.99 351.559,267.992
	255.561,267.992 159.486,267.992 159.486,299.99 151.565,299.99 136.206,299.99 103.566,227.989 159.486,227.989 351.481,227.989
	"/>
<g style="opacity:0.2;">
	<polygon style="fill:#FFFFFF;" points="103.566,227.989 136.206,299.99 143.565,299.99 144.206,299.99 111.566,227.989 	"/>
</g>
<g style="opacity:0.2;">
	<polygon points="408.198,227.989 375.558,299.99 368.199,299.99 367.558,299.99 400.198,227.989 	"/>
</g>
<polygon style="fill:#656D78;" points="191.563,507.984 175.564,507.984 159.564,507.984 143.565,507.984 143.565,491.984
	159.486,491.984 255.561,491.984 351.559,491.984 367.558,491.984 367.558,507.984 351.559,507.984 335.559,507.984
	319.559,507.984 303.56,507.984 287.561,507.984 271.561,507.984 255.561,507.984 239.562,507.984 223.562,507.984 207.563,507.984
	"/>
<path style="fill:#7F4545;" d="M351.559,299.99v191.994h-95.998v-15.999v-47.999v-15.999c26.477,0,47.999-21.515,47.999-47.999
	c0-26.482-21.522-47.998-47.999-47.998v-16v-15.999v-15.999h95.998V299.99z"/>
<path style="fill:#965353;" d="M255.561,475.985v15.999h-96.075V299.99v-31.998h96.075v15.999v15.999v16
	c-26.562,0-47.998,21.516-47.998,47.998c0,26.484,21.437,47.999,47.998,47.999v15.999V475.985z"/>
<g style="opacity:0.2;">
	<rect x="159.491" y="267.992" style="fill:#FFFFFF;" width="16.09" height="223.99"/>
</g>
<g style="opacity:0.2;">
	<rect x="335.561" y="267.992" width="16.09" height="219.99"/>
</g>
<g style="opacity:0.2;">
	<rect x="155.561" y="259.822" width="199.99" height="8.332"/>
</g>
<g style="opacity:0.2;">
	<rect x="143.561" y="491.982" style="fill:#FFFFFF;" width="8" height="16"/>
</g>
<g style="opacity:0.2;">
	<rect x="359.561" y="491.982" width="8" height="16"/>
</g>
<polygon style="fill:#656D78;" points="351.184,23.995 311.185,32.315 255.19,43.995 199.192,32.315 159.193,23.995 255.19,3.996
	"/>
<g style="opacity:0.2;">
	<polygon style="fill:#FFFFFF;" points="223.191,32.315 183.193,23.995 267.186,6.496 255.19,3.996 159.193,23.995 199.192,32.315
		255.19,43.995 267.186,41.495 	"/>
</g>
<g style="opacity:0.2;">
	<polygon points="287.186,32.315 327.184,23.995 255.179,8.988 267.186,6.496 351.184,23.995 311.185,32.315 267.186,41.495
		255.186,38.995 	"/>
</g>
<polygon style="fill:#656D78;" points="255.19,43.995 311.185,32.315 311.185,32.393 311.185,67.994 199.43,67.994 199.192,67.994
	199.192,66.314 199.192,32.393 199.192,32.315 "/>
<g style="opacity:0.1;">
	<polygon points="255.19,43.995 311.185,32.315 311.185,32.393 311.185,67.994 199.43,67.994 199.192,67.994 199.192,66.314
		199.192,32.393 199.192,32.315 	"/>
</g>
<g style="opacity:0.2;">
	<polygon points="311.185,32.315 255.19,43.995 199.192,32.315 199.192,32.393 199.192,40.315 255.19,51.994 311.185,40.315
		311.185,32.393 	"/>
</g>
<path style="fill:#EAC6BB;" d="M199.43,75.994v-8h111.755l0.242,8v8.077c0,37.999-34.64,73.037-55.999,73.037
	c-21.276,0-55.998-35.038-55.998-73.037L199.43,75.994L199.43,75.994z"/>
<g style="opacity:0.5;">
	<path style="fill:#FFFFFF;" d="M215.43,84.071v-8.077h-16v8.077c0,37.999,34.722,73.037,55.998,73.037
		c2.508,0,5.211-0.523,8.008-1.438C242.461,148.796,215.43,117.601,215.43,84.071z"/>
</g>
<g style="opacity:0.2;">
	<path d="M295.303,84.071v-8.077h16v8.077c0,37.999-34.718,73.037-55.999,73.037c-2.5,0-5.202-0.523-7.999-1.438
		C268.272,148.796,295.303,117.601,295.303,84.071z"/>
</g>
<path style="fill:#656D78;" d="M351.184,227.989H159.193v-8c0,0,0-13.359,0-26.64c0-13.359,6.719-18.398,20-23.358
	c6.559-2.477,18.319-6.883,27.999-11.523l48.236,53.522l47.757-53.6c9.766,4.719,21.522,9.125,27.999,11.602
	c13.359,4.96,20,10,20,23.358c0,13.281,0,26.64,0,26.64L351.184,227.989L351.184,227.989z"/>
<g style="opacity:0.3;">
	<path style="fill:#FFFFFF;" d="M167.193,201.349c0-13.359,6.719-18.398,20-23.359c6.433-2.43,17.87-6.718,27.44-11.265
		l-7.441-8.258c-9.68,4.641-21.44,9.047-27.999,11.523c-13.281,4.96-20,10-20,23.358c0,13.281,0,26.64,0,26.64l0,0h8
		C167.193,219.989,167.193,214.63,167.193,201.349z"/>
</g>
<g style="opacity:0.2;">
	<path d="M343.13,201.349c0-13.359-6.719-18.398-20-23.359c-6.43-2.43-17.866-6.718-27.444-11.265l7.445-8.258
		c9.68,4.641,21.444,9.047,27.999,11.523c13.281,4.96,20,10,20,23.358c0,13.281,0,26.64,0,26.64l0,0h-8
		C343.13,219.989,343.13,214.63,343.13,201.349z"/>
</g>
<polygon style="fill:#ED5564;" points="266.038,169.444 255.35,163.991 244.957,169.132 255.511,179.991 "/>
<g style="opacity:0.2;">
	<polygon style="fill:#FFFFFF;" points="207.196,41.987 199.192,40.315 199.192,67.994 207.196,67.994 	"/>
</g>
<g style="opacity:0.2;">
	<polygon points="303.178,41.987 311.185,40.315 311.185,67.994 303.178,67.994 	"/>
</g>
<g style="opacity:0.2;">
	<rect x="199.431" y="67.992" width="111.75" height="8"/>
</g>
<g style="opacity:0.2;">
	<rect x="159.491" y="219.992" width="191.7" height="8"/>
</g>
<g>
	<path style="fill:#3A3847;" d="M159.193,223.989c-2.211,0-3.999-1.789-3.999-4v-26.64c0-15.609,8.284-21.757,22.601-27.108
		c7.305-2.758,18.456-6.961,27.667-11.383c1.988-0.961,4.379-0.109,5.336,1.883s0.117,4.375-1.875,5.336
		c-9.523,4.562-20.879,8.852-27.663,11.406c-14.164,5.297-18.066,9.695-18.066,19.867v26.64
		C163.193,222.2,161.404,223.989,159.193,223.989z"/>
	<path style="fill:#3A3847;" d="M351.184,223.989c-2.211,0-4-1.789-4-4v-26.64c0-10.203-3.898-14.601-17.391-19.609l-1.539-0.586
		c-6.586-2.515-17.608-6.718-26.812-11.164c-1.984-0.961-2.82-3.352-1.859-5.344s3.359-2.828,5.344-1.859
		c8.891,4.297,19.71,8.422,26.179,10.891l1.508,0.578c14.281,5.305,22.57,11.445,22.57,27.093v26.64
		C355.184,222.2,353.395,223.989,351.184,223.989z"/>
	<path style="fill:#3A3847;" d="M255.429,161.108c-22.604,0-59.998-36.007-59.998-77.037c0-2.21,1.789-4,4-4s4,1.789,4,4
		c0,35.601,32.44,69.037,51.998,69.037c19.562,0,51.999-33.437,51.999-69.037c0-2.21,1.789-4,4-4s4,1.789,4,4
		C315.428,125.101,278.03,161.108,255.429,161.108z"/>
	<path style="fill:#3A3847;" d="M311.428,88.071c-2.211,0-4-1.789-4-4v-8.077c0-2.211,1.789-4,4-4s4,1.789,4,4v8.077
		C315.428,86.282,313.638,88.071,311.428,88.071z"/>
	<path style="fill:#3A3847;" d="M199.43,88.071c-2.211,0-4-1.789-4-4v-8.077c0-2.211,1.789-4,4-4s4,1.789,4,4v8.077
		C203.43,86.282,201.641,88.071,199.43,88.071z"/>
	<path style="fill:#3A3847;" d="M375.988,303.99c-0.547,0-1.094-0.109-1.625-0.344c-2.016-0.898-2.93-3.266-2.031-5.28
		l29.499-66.377H110.152l29.499,66.377c0.895,2.015-0.012,4.382-2.031,5.28c-2.031,0.891-4.387-0.023-5.281-2.031l-31.999-72.001
		c-0.551-1.234-0.434-2.672,0.301-3.805c0.738-1.133,2-1.82,3.355-1.82h303.991c1.352,0,2.617,0.688,3.352,1.82
		c0.742,1.133,0.852,2.57,0.305,3.805l-31.999,72.001C378.98,303.107,377.519,303.99,375.988,303.99z"/>
	<path style="fill:#3A3847;" d="M351.27,495.984c-2.211,0-4-1.789-4-4V271.992H163.193v219.992c0,2.211-1.789,4-4,4
		s-3.999-1.789-3.999-4V267.992c0-2.211,1.788-4.004,3.999-4.004H351.27c2.211,0,4,1.793,4,4.004v223.992
		C355.27,494.195,353.481,495.984,351.27,495.984z"/>
	<path style="fill:#3A3847;" d="M367.269,511.984H143.272c-2.211,0-4-1.789-4-4v-16c0-2.21,1.789-3.999,4-3.999h223.997
		c2.211,0,4,1.789,4,3.999v16C371.269,510.195,369.48,511.984,367.269,511.984z M147.272,503.984h215.997v-8H147.272V503.984z"/>
	<path style="fill:#3A3847;" d="M151.272,303.99h-15.277c-2.211,0-4-1.789-4-4c0-2.21,1.789-3.999,4-3.999h15.277
		c2.211,0,4,1.789,4,3.999C155.272,302.201,153.483,303.99,151.272,303.99z"/>
	<path style="fill:#3A3847;" d="M375.988,303.99h-16.719c-2.211,0-3.999-1.789-3.999-4c0-2.21,1.788-3.999,3.999-3.999h16.719
		c2.211,0,3.999,1.789,3.999,3.999C379.987,302.201,378.199,303.99,375.988,303.99z"/>
	<path style="fill:#3A3847;" d="M255.268,303.99c-2.211,0-3.999-1.789-3.999-4v-15.999c0-2.211,1.788-4,3.999-4c2.211,0,4,1.789,4,4
		v15.999C259.268,302.201,257.479,303.99,255.268,303.99z"/>
	<path style="fill:#3A3847;" d="M255.268,479.985c-2.211,0-3.999-1.789-3.999-4v-47.999c0-2.21,1.788-3.999,3.999-3.999
		c2.211,0,4,1.789,4,3.999v47.999C259.268,478.196,257.479,479.985,255.268,479.985z"/>
	<path style="fill:#3A3847;" d="M255.268,415.987c-28.671,0-51.998-23.327-51.998-51.999c0-28.67,23.327-51.998,51.998-51.998
		c28.676,0,52.003,23.328,52.003,51.998C307.271,392.66,283.944,415.987,255.268,415.987z M255.268,319.99
		c-24.261,0-43.998,19.742-43.998,43.998c0,24.258,19.737,43.999,43.998,43.999c24.262,0,44.003-19.741,44.003-43.999
		C299.271,339.732,279.53,319.99,255.268,319.99z"/>
	<path style="fill:#3A3847;" d="M272.546,392.23c-0.641,0-1.281-0.156-1.867-0.461l-15.41-8.141l-15.409,8.141
		c-1.348,0.703-2.977,0.586-4.215-0.297c-1.23-0.898-1.852-2.414-1.598-3.914l2.926-17.203l-12.492-12.14
		c-1.09-1.055-1.484-2.648-1.02-4.094c0.469-1.445,1.715-2.508,3.219-2.727l17.289-2.578l7.715-15.64
		c1.343-2.719,5.827-2.719,7.171,0l7.723,15.64l17.281,2.578c1.508,0.219,2.758,1.281,3.219,2.727
		c0.469,1.445,0.07,3.039-1.016,4.094l-12.492,12.14l2.922,17.203c0.25,1.5-0.367,3.016-1.602,3.914
		C274.194,391.972,273.374,392.23,272.546,392.23z M255.268,375.105c0.641,0,1.285,0.156,1.867,0.461l10.113,5.344l-1.922-11.289
		c-0.219-1.297,0.211-2.625,1.156-3.539l8.203-7.968l-11.359-1.695c-1.297-0.188-2.422-1.008-3-2.18l-5.059-10.25l-5.054,10.25
		c-0.578,1.172-1.699,1.992-2.996,2.18l-11.363,1.695l8.203,7.968c0.941,0.914,1.375,2.242,1.156,3.539l-1.922,11.289l10.108-5.344
		C253.983,375.262,254.628,375.105,255.268,375.105z"/>
	<path style="fill:#3A3847;" d="M159.271,511.984c-2.211,0-3.999-1.789-3.999-4v-4c0-2.211,1.788-4,3.999-4s4,1.789,4,4v4
		C163.271,510.195,161.482,511.984,159.271,511.984z"/>
	<path style="fill:#3A3847;" d="M175.271,511.984c-2.211,0-4-1.789-4-4v-4c0-2.211,1.789-4,4-4s4,1.789,4,4v4
		C179.271,510.195,177.482,511.984,175.271,511.984z"/>
	<path style="fill:#3A3847;" d="M191.27,511.984c-2.211,0-3.999-1.789-3.999-4v-4c0-2.211,1.788-4,3.999-4s4,1.789,4,4v4
		C195.27,510.195,193.481,511.984,191.27,511.984z"/>
	<path style="fill:#3A3847;" d="M207.27,511.984c-2.211,0-4-1.789-4-4v-4c0-2.211,1.789-4,4-4s4,1.789,4,4v4
		C211.27,510.195,209.481,511.984,207.27,511.984z"/>
	<path style="fill:#3A3847;" d="M223.269,511.984c-2.211,0-3.999-1.789-3.999-4v-4c0-2.211,1.788-4,3.999-4s4,1.789,4,4v4
		C227.269,510.195,225.48,511.984,223.269,511.984z"/>
	<path style="fill:#3A3847;" d="M239.269,511.984c-2.211,0-4-1.789-4-4v-4c0-2.211,1.789-4,4-4s4,1.789,4,4v4
		C243.269,510.195,241.48,511.984,239.269,511.984z"/>
	<path style="fill:#3A3847;" d="M255.268,511.984c-2.211,0-3.999-1.789-3.999-4v-4c0-2.211,1.788-4,3.999-4c2.211,0,4,1.789,4,4v4
		C259.268,510.195,257.479,511.984,255.268,511.984z"/>
	<path style="fill:#3A3847;" d="M271.272,511.984c-2.211,0-4-1.789-4-4v-4c0-2.211,1.789-4,4-4s4,1.789,4,4v4
		C275.272,510.195,273.483,511.984,271.272,511.984z"/>
	<path style="fill:#3A3847;" d="M287.272,511.984c-2.211,0-4-1.789-4-4v-4c0-2.211,1.789-4,4-4s4,1.789,4,4v4
		C291.272,510.195,289.483,511.984,287.272,511.984z"/>
	<path style="fill:#3A3847;" d="M303.271,511.984c-2.211,0-4-1.789-4-4v-4c0-2.211,1.789-4,4-4s4,1.789,4,4v4
		C307.271,510.195,305.482,511.984,303.271,511.984z"/>
	<path style="fill:#3A3847;" d="M319.27,511.984c-2.211,0-3.999-1.789-3.999-4v-4c0-2.211,1.788-4,3.999-4s4,1.789,4,4v4
		C323.27,510.195,321.481,511.984,319.27,511.984z"/>
	<path style="fill:#3A3847;" d="M335.27,511.984c-2.211,0-4-1.789-4-4v-4c0-2.211,1.789-4,4-4s4,1.789,4,4v4
		C339.27,510.195,337.481,511.984,335.27,511.984z"/>
	<path style="fill:#3A3847;" d="M351.27,511.984c-2.211,0-4-1.789-4-4v-4c0-2.211,1.789-4,4-4s4,1.789,4,4v4
		C355.27,510.195,353.481,511.984,351.27,511.984z"/>
	<path style="fill:#3A3847;" d="M311.185,71.994H199.43c-2.211,0-4.121-1.789-4.121-4s1.672-4,3.883-4h111.993c2.211,0,4,1.789,4,4
		S313.396,71.994,311.185,71.994z"/>
	<path style="fill:#3A3847;" d="M199.192,70.314c-2.211,0-4-1.789-4-4V32.393c0-2.211,1.789-4,4-4s4,1.789,4,4v33.921
		C203.192,68.525,201.403,70.314,199.192,70.314z"/>
	<path style="fill:#3A3847;" d="M311.185,71.994c-2.211,0-4-1.789-4-4V32.393c0-2.211,1.789-4,4-4s4,1.789,4,4v35.601
		C315.185,70.205,313.396,71.994,311.185,71.994z"/>
	<path style="fill:#3A3847;" d="M255.19,47.994c-0.273,0-0.547-0.031-0.816-0.086l-95.997-20c-1.852-0.383-3.183-2.016-3.183-3.914
		c0-1.891,1.327-3.531,3.183-3.914l95.997-19.998c0.539-0.109,1.094-0.109,1.633,0l95.99,19.999
		c1.859,0.383,3.188,2.023,3.188,3.914c0,1.898-1.328,3.531-3.188,3.914l-95.99,20C255.737,47.963,255.464,47.994,255.19,47.994z
		 M178.818,23.995l76.372,15.914l76.369-15.914L255.19,8.082L178.818,23.995z"/>
	<path style="fill:#3A3847;" d="M343.184,63.994c-2.211,0-4-1.789-4-4V35.995c0-2.211,1.789-4,4-4s4,1.789,4,4v23.999
		C347.184,62.205,345.395,63.994,343.184,63.994z"/>
	<path style="fill:#3A3847;" d="M255.429,215.989c-1.094,0-2.18-0.445-2.973-1.32l-48.236-53.521
		c-1.477-1.641-1.348-4.172,0.293-5.648c1.633-1.492,4.164-1.352,5.652,0.289l48.236,53.522c1.477,1.641,1.348,4.171-0.293,5.648
		C257.343,215.653,256.386,215.989,255.429,215.989z"/>
	<path style="fill:#3A3847;" d="M255.429,215.989c-0.949,0-1.898-0.336-2.66-1.016c-1.647-1.469-1.796-3.992-0.328-5.648
		l47.761-53.6c1.461-1.648,3.984-1.797,5.648-0.32c1.648,1.469,1.789,3.992,0.32,5.648l-47.753,53.6
		C257.624,215.536,256.53,215.989,255.429,215.989z"/>
	<path style="fill:#3A3847;" d="M239.191,175.991c-1.035,0-2.059-0.406-2.828-1.172l-23.999-24c-1.562-1.562-1.562-4.093,0-5.656
		s4.094-1.562,5.656,0l21.968,21.968l13.429-6.648l3.688,7.102l-16.14,7.992C240.402,175.858,239.793,175.991,239.191,175.991z"/>
	<path style="fill:#3A3847;" d="M271.186,175.991c-0.602,0-1.211-0.133-1.773-0.414l-15.996-7.921
		c-0.363-0.18-0.695-0.414-0.984-0.688c-1.601-1.523-1.702-4.094-0.18-5.695c1.367-1.43,3.496-1.672,5.082-0.602l13.055,6.461
		l21.968-21.968c1.562-1.562,4.094-1.562,5.656,0s1.562,4.093,0,5.656l-23.999,24C273.249,175.584,272.225,175.991,271.186,175.991z
		"/>
	<path style="fill:#3A3847;" d="M255.511,183.99c-1.023,0-2.047-0.391-2.828-1.172l-7.999-8c-1.562-1.562-1.562-4.093,0-5.656
		s4.094-1.562,5.656,0l7.999,8c1.562,1.562,1.562,4.093,0,5.656C257.557,183.599,256.534,183.99,255.511,183.99z"/>
	<path style="fill:#3A3847;" d="M255.511,183.99c-1.023,0-2.047-0.391-2.828-1.172c-1.562-1.562-1.562-4.093,0-5.656l7.996-8
		c1.562-1.562,4.094-1.562,5.656,0s1.562,4.093,0,5.656l-7.996,8C257.557,183.599,256.534,183.99,255.511,183.99z"/>
	<path style="fill:#3A3847;" d="M249.273,199.99c-0.148,0-0.297-0.008-0.449-0.023c-2.195-0.25-3.777-2.227-3.531-4.422l2.242-20
		c0.25-2.195,2.246-3.742,4.422-3.531c2.194,0.25,3.776,2.227,3.53,4.422l-2.242,20C253.014,198.482,251.285,199.99,249.273,199.99z
		"/>
	<path style="fill:#3A3847;" d="M261.741,199.99c-2.008,0-3.738-1.508-3.969-3.555l-2.238-20c-0.246-2.195,1.336-4.172,3.531-4.422
		c2.215-0.265,4.176,1.328,4.418,3.531l2.242,20c0.242,2.195-1.336,4.172-3.531,4.422
		C262.046,199.982,261.889,199.99,261.741,199.99z"/>
</g>
</svg>
