<?xml version="1.0" encoding="iso-8859-1"?>
<!-- Generator: Adobe Illustrator 18.1.1, SVG Export Plug-In . SVG Version: 6.00 Build 0)  -->
<svg xmlns="http://www.w3.org/2000/svg" xmlns:xlink="http://www.w3.org/1999/xlink" version="1.1" id="Capa_1" x="0px" y="0px" viewBox="0 0 18.561 18.561" style="enable-background:new 0 0 18.561 18.561;" xml:space="preserve" width="512px" height="512px">
<g>
	<path d="M16.981,9.21c0.177-1.53,0.243-2.305-0.134-2.682c-0.376-0.378-0.843-0.287-1.177-0.089   c-0.331,0.197-0.861,0.155-0.861,0.155s-0.467-0.333-1.134-0.577c-0.662-0.244-2.014-0.199-2.014-0.199l-0.312,0.023   c0,0-0.621-0.819-0.665-1.019c-0.042-0.201,0.069-0.465,0.246-0.732c0.178-0.266,0.309-0.443,0.377-1.04   c0.064-0.599-0.044-0.821-0.291-0.91c-0.241-0.088-0.506-0.155-0.552-0.332c-0.044-0.176-0.044-0.333,0-0.688   c0.046-0.354-0.198-0.553-0.198-0.553s0-0.132-0.023-0.377s-0.22-0.199-0.176-0.156C10.11,0.08,9.954,0.478,9.954,0.478   S9.421,0.522,9.201,0.545c-0.22,0.022-0.243,0.419-0.243,0.419s0.031,0.177,0.075,0.337C9.007,1.43,8.972,1.59,8.952,1.676   C8.938,1.74,8.974,1.759,9.107,1.747c0.006,0.118,0.017,0.239,0.07,0.328C9.291,2.25,9.623,2.162,9.623,2.162L9.555,2.317   c0,0-0.245,0.022-0.444,0.067C8.912,2.428,8.626,2.34,8.271,2.295C7.915,2.25,7.251,1.829,7.006,1.787   C6.764,1.741,6.408,1.741,6.144,1.763c-0.267,0.024-0.645,0.066-0.71,0.155C5.368,2.007,5.942,2.075,5.942,2.075   s0.045,0.153,0.223,0.153c0.177,0,0.354,0.088,0.354,0.088s0.084-0.1,0.286-0.074C7.05,2.277,7.621,2.744,8.064,2.9   c0.439,0.156,0.848,0.347,0.848,0.347l0.046,0.911c0,0-0.201,0-0.311,0.044c-0.111,0.044-0.312,0.021-0.4,0.067   C8.16,4.312,8.026,4.49,8.091,4.621C8.16,4.755,8.401,4.8,8.401,4.8l0.334,0.043L8.781,5l0.044,0.332c0,0-0.09,0.133-0.311,0.111   c-0.223-0.022-0.532-0.157-0.775-0.62C7.495,4.357,7.073,3.67,5.609,3.425C4.148,3.182,3.485,4.6,3.485,4.6l-0.49-0.021   l0.312,0.333c0,0,0,0.286,0.067,0.51c0.065,0.22,0.397,0.353,0.638,0.863c0.244,0.511,0.136,1.13,0.136,1.239   c0,0.111,0.398,0.201,0.621,0.224c0.221,0.022,0.42-0.312,0.42-0.312S5.08,7.726,5.08,7.926c0,0.198,0.021,0.64-0.223,0.686   C4.614,8.657,3.951,8.588,3.55,8.523c-0.4-0.068-0.575,0.333-0.575,0.333s-0.758,0.996-0.999,1.839   c-0.245,0.844-0.091,1.107-0.091,1.107s0.268-0.132,0.379-0.178c0.108-0.043,0.265-0.286,0.286-0.485   c0.023-0.199-0.088-0.444-0.088-0.444l0.711-1.239c0,0,0.199-0.136,0.376-0.112c0.179,0.021,0.444,0.088,1.24,0.444   c0.797,0.354,1.063,0.288,1.063,0.288s-0.02,0.087-0.243,0.464c-0.221,0.375-0.374,0.665-0.906,1.529   c-0.531,0.861-0.731,1.129-1.132,1.551c-0.212,0.226-0.472,0.49-0.665,0.686H2.299l-0.466,1.332H1.439v1.239h0.376v1.684h13.96   v-1.684h0.353v-1.239h-0.369l-0.471-1.332h-5.7c0.1-0.163,0.211-0.341,0.256-0.376c0.089-0.065,0.354-0.112,0.555-0.31   s1.573-1.176,1.816-1.397c0.243-0.218,0.137-0.529,0.137-1.128s0.418-1.242,0.418-1.242s0.178,0.268,0.556,0.556   c0.376,0.289,1.063,0.688,1.194,0.843c0.136,0.154-0.864,0.951-1.261,1.507c-0.401,0.555,0.132,1.507,0.132,1.507   s0.223-0.091,0.487-0.311c0.268-0.222,0.244-0.289,0.087-0.444c-0.154-0.154-0.154-0.421-0.064-0.665s1.108-1.196,1.35-1.485   c0.247-0.289,0.026-0.464-0.24-0.619c-0.268-0.154-0.62-0.621-0.688-0.888c-0.067-0.266,0.311-0.729,0.575-1.396   c0.266-0.664,0.134-1.417,0.134-1.417s0.311-0.088,0.487,0.089c0.176,0.176,0.377,0.464,0.399,1.771   c0.02,1.308-0.246,3.458-0.246,3.458S16.801,10.74,16.981,9.21z M4.261,7.366c0,0,0.029-0.491-0.017-0.803   C4.201,6.251,3.861,5.778,3.609,5.556c-0.252-0.223-0.164-0.55-0.164-0.55c0.03,0.116,0.164,0.354,0.283,0.459   C3.844,5.57,4.234,5.926,4.35,6.4C4.469,6.875,4.261,7.366,4.261,7.366z M9.305,4.146c0.164-0.03,0.385-0.03,0.385-0.03   s0.165-0.429,0.327-0.577c0.164-0.15,0.252-0.329,0.252-0.506S10.582,2.5,10.582,2.5s-0.208,0.503-0.225,0.653   c-0.015,0.147-0.132,0.325-0.281,0.473S9.883,4.131,9.855,4.19c-0.031,0.06-0.15,0.062-0.312,0.062   c-0.163,0-0.638,0.026-0.638,0.026S9.14,4.177,9.305,4.146z M11.327,11.936c-0.153,0.225-1.728,1.487-2.017,1.772   c-0.155,0.158-0.392,0.403-0.569,0.598H3.926l0.055-0.085c0,0,0.162-0.388,0.318-0.612c0.153-0.222,0.363-0.406,0.608-0.65   c0.243-0.245,0.424-0.693,0.934-1.423c0.513-0.732,1.165-1.237,1.165-1.237s0.467-0.022,0.645-0.091   c0.177-0.065,0.155-0.286,0.397-0.354c0.242-0.064,0.378,0,1.417,0c1.045,0,1.799-0.487,1.799-0.487s-0.047,0.377,0,0.819   c0.044,0.444,0.221,0.775,0.221,1.175C11.484,11.758,11.484,11.714,11.327,11.936z M12.671,9.411   c-0.475-0.755-0.088-2.017-0.088-2.017s-0.06,0.892,0.088,1.542c0.148,0.654,1.22,1.662,1.22,1.662S13.146,10.169,12.671,9.411z" fill="#c15adb"/>
</g>
<g>
</g>
<g>
</g>
<g>
</g>
<g>
</g>
<g>
</g>
<g>
</g>
<g>
</g>
<g>
</g>
<g>
</g>
<g>
</g>
<g>
</g>
<g>
</g>
<g>
</g>
<g>
</g>
<g>
</g>
</svg>
