<?xml version="1.0" encoding="iso-8859-1"?>
<!-- Generator: Adobe Illustrator 16.0.0, SVG Export Plug-In . SVG Version: 6.00 Build 0)  -->
<!DOCTYPE svg PUBLIC "-//W3C//DTD SVG 1.1//EN" "http://www.w3.org/Graphics/SVG/1.1/DTD/svg11.dtd">
<svg version="1.1" id="Capa_1" xmlns="http://www.w3.org/2000/svg" xmlns:xlink="http://www.w3.org/1999/xlink" x="0px" y="0px"
	 viewBox="0 0 581.376 581.376" style="" xml:space="preserve">
<g>
	<g>
		<path d="M579.971,542.346c-6.732-8.262-13.158-7.344-22.949-3.978c-11.936,3.978-10.1,6.731-15.301-7.956
			c-1.836-5.508-8.262-7.345-12.852-3.366c-11.016,10.098-22.951,18.666-34.271,28.458c-0.307-0.612-0.612-0.918-0.918-1.53
			c3.365-0.612,6.73-3.06,7.037-7.649c13.465-147.799,108.631-380.052-43.146-490.519c-97.002-70.38-253.674-67.014-334.152,25.704
			c-37.026,27.846-64.872,67.932-78.642,119.034c-28.458,105.264-0.918,227.358,36.414,329.868
			c-3.978-5.508-8.262-11.017-12.852-16.219c-3.672-4.283-10.098-0.611-10.404,4.284c-0.306,11.017-0.612,22.032-0.612,33.048
			c-7.956-6.731-16.218-13.77-21.42-22.949c-1.836-3.366-6.426-4.59-9.792-2.754c-10.404,6.426-30.906,29.682-25.092,43.451
			c0.918,2.448,3.366,5.202,6.426,4.896c2.754-0.306,4.284-0.918,6.12-3.061c2.142-2.142,2.142-4.896,0.918-7.037
			c1.836-7.038,8.262-15.912,14.076-21.42c8.874,11.016,20.502,19.584,30.906,29.069c4.284,3.979,12.24,1.225,11.934-4.896
			c0-10.71-0.306-21.727-0.612-32.437c7.038,7.956,13.77,16.524,21.114,24.174c0.306,0.918,0.918,2.143,1.224,3.061
			c2.754,6.731,13.77,4.284,11.322-3.061c-35.19-107.712-65.79-257.04-33.048-364.751c11.322,3.366,22.95,4.59,34.884,5.814
			c1.224,11.934,4.284,23.256,5.508,35.19c0.918,7.956,12.852,10.71,14.688,2.142c3.366-14.688,10.098-21.114,18.054-29.07
			c3.06,7.956,6.12,16.218,9.792,24.174c1.53,3.366,5.508,3.978,8.568,3.366c12.546-2.142,25.092-8.874,36.414-14.688
			c8.568-4.284,0.918-16.83-7.344-12.852c-8.568,3.978-17.136,8.568-26.316,11.322c-3.978-9.792-7.344-19.89-11.628-29.682
			c-2.754-5.814-10.098-3.978-13.158,0c-7.038,9.486-13.158,14.688-18.36,21.114c-1.224-5.814-2.448-11.322-3.06-17.136
			c-0.306-3.366-2.754-7.038-6.732-6.732c-12.852,0.918-25.398,0.918-37.944-2.142c27.54-79.254,91.494-133.416,216.954-127.296
			c30.295,1.53,55.08,8.568,75.276,19.89c-12.852,9.792-19.89,23.256-26.928,37.026c-10.098-4.896-24.48-5.202-28.764,5.814
			c-0.918,2.448,0,5.814,1.836,7.65c0.611,0.612,1.224,1.224,1.836,1.836c3.672,3.366,8.874,1.836,11.016-1.53
			c0.918,0.612,2.754,0.918,5.508,0.306c0.307,0,0.612,0.306,0.918,0.306c-7.038,12.24-15.605,23.562-30.294,30.6
			c-7.038,3.366-3.672,15.3,3.979,14.688c12.24-1.224,24.174-5.202,35.496-10.404c1.529,6.12,3.365,12.24,5.201,18.36
			c2.755,8.262,15.912,7.344,15.606-2.142c-0.612-14.382-2.754-39.78-11.628-54.774c6.12-15.606,11.016-29.988,23.256-42.84
			c94.248,61.812,78.948,227.052,61.2,357.714c-15.3,0.612-30.601,2.142-45.9,2.448c0-4.59,0-8.874,0.307-13.464
			c0-6.732-7.956-9.486-12.853-5.202c-5.813,4.896-12.24,8.874-18.972,12.546c2.754-3.061,5.813-5.814,8.567-8.874
			c3.061-3.06,2.448-7.344,0-10.71c-4.283-5.202-20.195-25.398-27.846-11.934c-4.896,8.567,1.836,16.218,8.874,20.502
			c-10.403,10.71-19.89,21.42-27.54,34.577c-4.59,7.65,5.508,14.688,11.935,9.181c12.546-11.017,28.458-17.137,42.84-25.704
			c0,2.142,0,4.284,0,6.426c0,3.672,3.366,7.344,7.344,7.344c17.748-0.918,34.578-5.508,52.021-8.567
			c-5.509,40.086-11.017,76.5-13.465,105.264c-0.918,12.24,17.442,12.546,19.584,0.918c0.918,3.366,5.814,5.508,8.263,1.224
			c5.813-10.71,11.934-20.502,19.277-29.682c3.673,15.912,11.322,29.988,18.666,44.676c2.143,4.284,8.263,4.59,11.628,1.53
			c10.711-9.792,22.338-18.054,33.354-27.234c3.061,6.732,7.344,12.853,14.689,15.606c2.754,0.918,5.508-0.306,7.344-1.836
			c6.73-6.12,14.381-8.262,22.338-6.732C581.5,552.138,582.725,545.407,579.971,542.346z M291.719,38.67
			c-33.66-3.366-65.79-0.612-95.166,7.344c77.724-34.884,172.278-31.212,243.271,18.36c-0.918-0.306-2.142-0.612-3.06-0.612
			c-10.71,1.836-22.032,3.06-28.458,11.934c-7.65-3.366-16.524-4.59-22.95-9.792c-1.836-1.53-3.979-0.918-5.508,0.306
			C356.285,52.134,327.521,42.342,291.719,38.67z M400.043,81.816c2.448,1.224,4.59,2.754,6.427,4.59
			c2.447,2.448,6.119,1.53,7.956-0.918c6.426-9.486,18.359-5.814,26.621-12.852c2.755-2.142,1.837-5.202-0.306-6.732
			c10.404,7.344,19.89,15.606,29.07,24.786c75.888,76.806,62.118,190.026,41.31,297.738c-5.814,0-11.322,2.143-16.218,5.202
			c-7.65,4.896-10.404,7.65-19.278,2.142c-4.59-2.754-9.792,0.918-10.098,5.814c-0.306,7.344-4.59,13.158-8.874,18.972
			C471.953,295.098,480.521,152.502,400.043,81.816z M485.724,536.226c-3.366-7.649-5.814-15.912-6.732-24.786
			c-0.612-4.896-7.038-9.485-11.016-4.59c-11.017,13.464-19.278,27.54-26.622,43.146c2.754-30.906,7.649-67.015,12.546-105.876
			c0.918-0.918,0.918-2.143,0.306-3.366c0-0.612,0-1.224,0.307-1.836c0.611-0.307,0.918-0.918,1.224-1.53
			c6.12-10.098,15.912-17.442,20.502-27.54c4.896,1.836,9.792,2.754,14.994,0.918c6.425-2.142,11.321-6.12,17.136-8.874
			C499.188,449.323,489.089,495.222,485.724,536.226z"/>
		<path d="M226.541,374.352c-16.218-7.956-24.174-21.113-39.78-26.622c3.978-6.12,7.038-12.546,8.874-19.89
			c2.448-9.792,1.836-19.89,5.508-29.376c1.224-2.754-1.224-6.732-3.978-7.038c-9.18-1.53-17.442-2.142-26.01,2.754
			c-6.12,3.366-9.486,9.792-14.076,14.994c-1.53-2.754-6.426-2.754-7.038,0.612c-0.306,2.142-0.306,4.284-0.306,6.426
			c-0.306,0.918-0.306,1.836,0,2.448c0.306,10.71,3.366,21.726,5.202,31.824c1.836,10.403,2.142,24.785,8.874,33.048
			c2.448,3.06,7.956,1.224,8.568-2.448c1.836-9.18-3.06-19.278-5.508-27.846c-3.06-11.322-5.508-22.95-7.956-34.272
			c10.404-7.344,14.688-17.748,28.152-17.442c-4.896,16.219-4.59,31.519-17.748,45.9c-3.978,4.59-1.224,11.322,4.896,11.628
			c20.808,1.225,27.846,21.42,46.818,27.234C228.683,388.734,233.273,377.718,226.541,374.352z"/>
		<path d="M253.775,338.245c-2.448-13.771-4.896-27.234-5.202-41.311c-0.306-5.813-8.874-5.813-9.18,0
			c-0.306,13.158,1.224,26.316,2.754,39.475c0.918,7.956,0.306,18.359,3.978,25.397c1.836,3.366,7.344,3.672,9.18,0
			C258.671,354.768,255.305,345.588,253.775,338.245z"/>
		<path d="M305.489,279.492c-2.448-3.672-7.956-4.896-11.322-1.53c-4.284,4.59-7.65,8.874-10.404,13.464
			c-0.612-3.06-1.224-6.12-2.142-9.18c-1.224-3.978-7.038-2.448-6.426,1.836c1.224,6.12,2.142,12.546,2.754,18.666
			c-7.956,20.808-3.672,43.146,8.262,67.014c3.366,7.344,14.688,2.143,12.853-5.508c-2.143-7.344-3.672-14.382-5.202-21.726
			c3.06,3.672,9.18,4.59,11.322-0.612c4.284-9.486,10.098-19.278,11.934-29.682C318.953,300.3,312.222,288.979,305.489,279.492z
			 M302.123,314.376c-2.142,7.649-6.731,14.382-9.18,22.032c-1.225-6.732-2.449-13.465-3.672-20.196
			c1.224-7.038,4.59-14.076,9.792-21.114C302.123,300.913,303.959,307.338,302.123,314.376z"/>
		<path d="M409.529,556.117c-8.568-15.301-24.174-26.011-26.316-44.677c-0.918-7.038-9.792-10.71-14.075-3.672
			c-4.284,7.038-9.181,12.853-14.076,18.973c0-0.307,0.306-0.918,0.306-1.225c0.612-6.731-7.956-8.874-12.24-5.202
			c-10.403,9.792-21.113,17.442-34.578,22.95c-17.441,7.344-25.704-18.054-30.906-28.151c-2.142-4.284-8.874-4.284-11.016,0
			c-5.508,10.403-9.486,22.338-8.568,33.966c-7.65-14.688-18.36-27.54-28.152-41.311c-2.754-4.283-10.098-5.201-12.546,0
			l-15.3,30.601c-7.038-10.099-14.688-19.891-20.808-30.601c-3.672-6.426-12.24-3.06-13.158,3.672
			c-1.53,14.383-8.874,25.398-18.054,35.496c-4.59-9.792-11.934-18.666-18.972-26.315c-3.672-3.979-9.18-1.53-10.71,2.754
			c-4.284,11.628-7.65,23.562-11.934,35.189c-1.53,4.591,5.508,7.65,7.956,3.366c4.284-8.262,7.956-16.523,11.628-24.786
			c5.814,7.345,10.71,15.912,12.546,24.48c0.918,5.202,7.956,6.426,11.322,3.06c11.016-11.016,20.196-22.644,25.398-36.107
			c6.426,9.18,13.158,18.359,18.972,28.151c2.448,4.59,9.792,4.896,12.24,0c5.202-10.403,10.404-20.502,15.606-30.905
			c10.098,14.382,19.89,28.458,27.846,44.369c3.366,6.732,14.076,2.143,12.24-5.201c0-0.307-0.306-0.612-0.306-0.918
			c1.836,0.306,3.672-1.225,3.978-3.366c0-0.307,0-0.612,0-1.225c0-0.918-0.306-1.836-0.612-2.142
			c-1.224-6.732,1.224-15.606,3.978-23.562c5.202,11.629,12.852,26.622,20.809,25.704c17.136-1.529,31.212-7.649,44.37-16.523
			c-1.225,4.896-2.448,9.485-3.061,14.382c0,0,0,0,0,0.306l0,0c0,0.612-0.306,1.225-0.306,1.836
			c-0.612,7.038,11.016,10.404,13.77,3.673c6.12-13.771,16.219-24.175,25.398-35.496c5.814,12.852,15.606,22.644,24.174,35.496
			C402.186,571.417,414.119,564.684,409.529,556.117z"/>
	</g>
</g>
</svg>
