<?xml version="1.0" encoding="iso-8859-1"?>
<!-- Generator: Adobe Illustrator 19.0.0, SVG Export Plug-In . SVG Version: 6.00 Build 0)  -->
<svg version="1.1" id="Layer_1" xmlns="http://www.w3.org/2000/svg" xmlns:xlink="http://www.w3.org/1999/xlink" x="0px" y="0px"
	 viewBox="0 0 512 512" style="enable-background:new 0 0 512 512;" xml:space="preserve">
<rect x="14.361" y="266.254" style="fill:#6DA8D6;" width="483.28" height="234.503"/>
<path d="M340.298,320.189c-0.731,0-1.472-0.067-2.192-0.214c-0.719-0.146-1.427-0.36-2.102-0.641
	c-0.686-0.281-1.337-0.629-1.944-1.034c-0.618-0.416-1.191-0.888-1.708-1.405c-0.517-0.517-0.989-1.09-1.394-1.708
	c-0.405-0.607-0.753-1.259-1.034-1.933c-0.281-0.686-0.506-1.394-0.641-2.102c-0.146-0.731-0.225-1.472-0.225-2.203
	s0.079-1.472,0.225-2.192c0.135-0.719,0.36-1.427,0.641-2.102c0.281-0.686,0.629-1.337,1.034-1.944
	c0.405-0.618,0.877-1.191,1.394-1.708c0.517-0.517,1.09-0.989,1.708-1.394c0.607-0.405,1.259-0.753,1.944-1.034
	c0.674-0.281,1.382-0.495,2.102-0.641c1.45-0.292,2.934-0.292,4.383,0c0.719,0.146,1.427,0.36,2.102,0.641
	c0.686,0.281,1.337,0.629,1.944,1.034c0.618,0.405,1.191,0.877,1.708,1.394c0.517,0.517,0.989,1.09,1.394,1.708
	c0.405,0.607,0.753,1.259,1.034,1.944c0.281,0.674,0.506,1.382,0.652,2.102c0.146,0.719,0.214,1.461,0.214,2.192
	c0,0.731-0.067,1.472-0.214,2.203c-0.146,0.708-0.371,1.416-0.652,2.102c-0.281,0.674-0.629,1.326-1.034,1.933
	c-0.405,0.618-0.877,1.191-1.394,1.708c-0.517,0.517-1.09,0.989-1.708,1.405c-0.607,0.405-1.259,0.753-1.944,1.034
	c-0.674,0.281-1.382,0.495-2.102,0.641C341.77,320.121,341.029,320.189,340.298,320.189z"/>
<path d="M171.704,320.189c-0.731,0-1.472-0.067-2.192-0.214c-0.719-0.146-1.427-0.36-2.102-0.641
	c-0.686-0.281-1.338-0.629-1.944-1.034c-0.618-0.416-1.191-0.888-1.708-1.405c-2.091-2.091-3.293-4.979-3.293-7.946
	c0-0.731,0.079-1.472,0.225-2.192c0.135-0.719,0.36-1.427,0.641-2.102c0.281-0.686,0.629-1.337,1.034-1.944
	c0.405-0.618,0.877-1.191,1.394-1.708c0.517-0.517,1.09-0.989,1.708-1.394c0.607-0.405,1.259-0.753,1.944-1.034
	c0.674-0.281,1.382-0.495,2.102-0.641c1.45-0.292,2.945-0.292,4.383,0c0.719,0.146,1.427,0.36,2.113,0.641
	c0.674,0.281,1.326,0.629,1.933,1.034c0.618,0.405,1.191,0.877,1.708,1.394c0.517,0.517,0.989,1.09,1.394,1.708
	c0.405,0.607,0.753,1.259,1.034,1.944c0.281,0.674,0.506,1.382,0.641,2.102c0.146,0.719,0.225,1.461,0.225,2.192
	c0,2.967-1.203,5.856-3.293,7.946c-0.517,0.517-1.09,0.989-1.708,1.405c-0.607,0.405-1.259,0.753-1.933,1.034
	c-0.686,0.281-1.394,0.495-2.113,0.641C173.177,320.121,172.435,320.189,171.704,320.189z"/>
<rect x="255.645" y="11.24" style="fill:#F5C159;" width="79.385" height="53.388"/>
<path style="fill:#2974A8;" d="M385.637,212.317C376.624,148.784,322.022,99.921,256,99.921l0,0
	c-66.022,0-120.623,48.863-129.637,112.396H385.637z"/>
<rect x="219.352" y="394.026" style="fill:#F58038;" width="73.293" height="106.731"/>
<rect x="65.347" y="306.155" style="fill:#F5C159;" width="63.504" height="48.33"/>
<path d="M128.858,365.727H65.351c-6.208,0-11.24-5.032-11.24-11.24v-48.33c0-6.208,5.032-11.24,11.24-11.24h63.507
	c6.208,0,11.24,5.032,11.24,11.24v48.33C140.097,360.695,135.065,365.727,128.858,365.727z M76.59,343.248h41.028v-25.851H76.59
	V343.248z"/>
<rect x="65.347" y="406.412" style="fill:#F5C159;" width="63.504" height="48.33"/>
<path d="M128.858,465.983H65.351c-6.208,0-11.24-5.032-11.24-11.24v-48.33c0-6.208,5.032-11.24,11.24-11.24h63.507
	c6.208,0,11.24,5.032,11.24,11.24v48.33C140.097,460.951,135.065,465.983,128.858,465.983z M76.59,443.504h41.028v-25.851H76.59
	V443.504z"/>
<rect x="224.241" y="306.155" style="fill:#F5C159;" width="63.504" height="48.33"/>
<path d="M287.755,365.727h-63.508c-6.208,0-11.24-5.032-11.24-11.24v-48.33c0-6.208,5.032-11.24,11.24-11.24h63.508
	c6.208,0,11.24,5.032,11.24,11.24v48.33C298.995,360.695,293.963,365.727,287.755,365.727z M235.487,343.248h41.029v-25.851h-41.029
	V343.248z"/>
<rect x="383.147" y="306.155" style="fill:#F5C159;" width="63.504" height="48.33"/>
<path d="M446.65,365.727h-63.507c-6.208,0-11.24-5.032-11.24-11.24v-48.33c0-6.208,5.032-11.24,11.24-11.24h63.507
	c6.208,0,11.24,5.032,11.24,11.24v48.33C457.89,360.695,452.858,365.727,446.65,365.727z M394.383,343.248h41.028v-25.851h-41.028
	V343.248z"/>
<rect x="383.147" y="406.412" style="fill:#F5C159;" width="63.504" height="48.33"/>
<path d="M446.65,465.983h-63.507c-6.208,0-11.24-5.032-11.24-11.24v-48.33c0-6.208,5.032-11.24,11.24-11.24h63.507
	c6.208,0,11.24,5.032,11.24,11.24v48.33C457.89,460.951,452.858,465.983,446.65,465.983z M394.383,443.504h41.028v-25.851h-41.028
	V443.504z"/>
<rect x="50.312" y="212.316" style="fill:#C1E8E6;" width="411.38" height="53.941"/>
<path d="M497.641,255.018h-24.712v-42.701c0-6.208-5.032-11.24-11.24-11.24h-66.642c-6.372-29.816-22.278-56.961-45.447-77.241
	c-23.16-20.272-52.192-32.391-82.713-34.73V75.867h68.143c6.208,0,11.24-5.032,11.24-11.24V11.24c0-6.208-5.032-11.24-11.24-11.24
	h-79.383c-6.208,0-11.24,5.032-11.24,11.24v27.725v25.663v24.535c-30.263,2.47-59.026,14.559-82.007,34.674
	c-23.169,20.28-39.076,47.424-45.447,77.241H50.312c-6.208,0-11.24,5.032-11.24,11.24v42.701H14.36
	c-6.208,0-11.24,5.032-11.24,11.24V500.76c0,6.208,5.032,11.24,11.24,11.24h204.992h73.296H497.64c6.208,0,11.24-5.032,11.24-11.24
	V266.258C508.88,260.05,503.849,255.018,497.641,255.018z M266.888,22.479h56.904v30.909h-56.904V38.964V22.479z M256.001,111.161
	c54.844,0,102.574,37.841,115.961,89.917H140.039C153.428,149.002,201.158,111.161,256.001,111.161z M61.552,223.556h64.812h259.275
	h64.812v31.462H61.552V223.556z M230.593,489.521v-84.252h50.816v84.252H230.593z M486.401,489.521H351.538V346.043
	c0-6.208-5.032-11.24-11.24-11.24c-6.208,0-11.24,5.032-11.24,11.24v143.478h-25.17v-95.491c0-6.208-5.032-11.24-11.24-11.24
	h-73.296c-6.208,0-11.24,5.032-11.24,11.24v95.491h-25.17V346.043c0-6.208-5.032-11.24-11.24-11.24s-11.24,5.032-11.24,11.24
	v143.478H25.6V277.497h24.712h411.376h24.712V489.521z"/>
</svg>
