<?xml version="1.0" encoding="iso-8859-1"?>
<!-- Generator: Adobe Illustrator 19.0.0, SVG Export Plug-In . SVG Version: 6.00 Build 0)  -->
<svg xmlns="http://www.w3.org/2000/svg" xmlns:xlink="http://www.w3.org/1999/xlink" version="1.1" id="Layer_1" x="0px" y="0px" viewBox="0 0 512.001 512.001" style="enable-background:new 0 0 512.001 512.001;" xml:space="preserve" width="512px" height="512px">
<g>
	<g>
		<g>
			<path d="M375.658,311.431c-1.728,3.765-0.077,8.217,3.688,9.945c3.763,1.727,8.215,0.077,9.944-3.688     c25.105-54.701,37.834-113.189,37.834-173.842V87.278c0-3.302-2.16-6.216-5.32-7.176L258.179,30.401     c-1.421-0.432-2.938-0.432-4.359,0L90.195,80.102c-3.16,0.96-5.32,3.873-5.32,7.176v56.568     c0,64.772,15.234,129.364,44.054,186.794c28.756,57.302,71.154,107.722,122.609,145.808c1.325,0.981,2.894,1.472,4.462,1.472     s3.137-0.491,4.462-1.472c48.487-35.89,87.678-80.999,116.484-134.076c1.975-3.64,0.626-8.193-3.015-10.169     c-3.644-1.978-8.195-0.626-10.169,3.014c-26.863,49.499-63.1,91.805-107.761,125.824c-25.454-19.415-48.233-41.776-68.001-66.421     h117.082c4.143,0,7.5-3.358,7.5-7.5c0-4.142-3.357-7.5-7.5-7.5h-128.54c-12.257-16.864-23.167-34.659-32.648-53.217h65.373     c14.341,6.27,30.141,9.745,46.731,9.745c16.614,0,32.444-3.488,46.801-9.776c0.225,0.021,0.453,0.031,0.682,0.031h47.805     c4.143,0,7.5-3.358,7.5-7.5c0-4.142-3.357-7.5-7.5-7.5h-23.368c17.46-13.585,31.074-31.982,38.889-53.217H379.2     c4.143,0,7.5-3.358,7.5-7.5c0-4.142-3.357-7.5-7.5-7.5h-7.962c1.929-8.559,2.949-17.465,2.949-26.608     c0-9.143-1.019-18.049-2.949-26.609h21.437c4.143,0,7.5-3.358,7.5-7.5c0-4.142-3.357-7.5-7.5-7.5h-25.867     c-7.816-21.236-21.428-39.632-38.889-53.217H394.6c4.143,0,7.5-3.358,7.5-7.5c0-4.142-3.357-7.5-7.5-7.5h-91.438     c-0.135,0-0.271,0.004-0.405,0.011c-14.347-6.276-30.158-9.756-46.757-9.756s-32.41,3.48-46.757,9.756     c-0.134-0.008-0.269-0.011-0.405-0.011H99.875V92.838L256,45.416l156.125,47.422v51.008     C412.125,202.323,399.855,258.707,375.658,311.431z M102.55,189.969h38.212c-1.93,8.56-2.95,17.466-2.95,26.609     s1.02,18.048,2.95,26.608h-28.341C107.957,225.764,104.646,207.983,102.55,189.969z M137.131,311.402     c-0.169,0-0.337,0.006-0.503,0.017c-7.916-17.217-14.62-35-20.053-53.234h28.617c7.815,21.235,21.429,39.632,38.889,53.217     H137.131z M256,112.007c56.897,0,103.189,46.91,103.189,104.57s-46.291,104.57-103.188,104.57     c-56.898,0-103.188-46.91-103.188-104.57S199.102,112.007,256,112.007z M184.08,121.752     c-17.46,13.585-31.073,31.982-38.888,53.217h-44.101c-0.807-10.319-1.216-20.694-1.216-31.123v-22.094H184.08z" fill="#000000"/>
			<path d="M443.575,56.191L261.076,0.757c-3.32-1.009-6.832-1.009-10.152,0l-83,25.211c-3.964,1.204-6.201,5.393-4.997,9.356     c1.204,3.963,5.392,6.201,9.356,4.997l83.002-25.211c0.468-0.143,0.963-0.143,1.432,0l182.499,55.434     c1.051,0.319,1.784,1.32,1.784,2.433v70.869c0,141.685-69.149,273.662-185,353.093C140.15,417.509,71,285.531,71,143.846V72.977     c0-1.113,0.733-2.114,1.784-2.433l76.23-23.154c3.964-1.204,6.201-5.392,4.997-9.356c-1.204-3.964-5.393-6.201-9.356-4.997     L68.424,56.192C60.993,58.449,56,65.194,56,72.977v70.869c0,146.705,71.664,283.375,191.701,365.59     c2.45,1.678,5.32,2.565,8.299,2.565s5.85-0.887,8.299-2.564C384.336,427.221,456,290.552,456,143.846V72.977     C456,65.194,451.007,58.449,443.575,56.191z" fill="#000000"/>
			<path d="M177.66,198.646v35.863c0,8.09,6.542,14.672,14.584,14.672h31.462v31.948c0,8.09,6.542,14.672,14.584,14.672h35.42     c8.042,0,14.584-6.582,14.584-14.672V249.18h31.462c8.042,0,14.584-6.582,14.584-14.672v-35.863     c0-8.09-6.542-14.672-14.584-14.672h-31.462v-31.949c0-8.09-6.542-14.672-14.584-14.672h-35.42     c-8.042,0-14.584,6.582-14.584,14.672v31.949h-31.462C184.203,183.973,177.66,190.555,177.66,198.646z M192.66,198.974h38.546     c4.142,0,7.5-3.358,7.5-7.5v-39.121h34.588v39.121c0,4.142,3.357,7.5,7.5,7.5h38.546v35.207h-38.546c-4.143,0-7.5,3.358-7.5,7.5     v39.121h-34.588v-39.121c0-4.142-3.358-7.5-7.5-7.5H192.66V198.974z" fill="#000000"/>
		</g>
	</g>
</g>
</svg>
